<svg width="143" height="65" viewBox="0 0 143 65" fill="none" xmlns="http://www.w3.org/2000/svg"><circle cx="67.5" cy="32.5" r="32.5" fill="#DBF227"/><path d="M.059 31.618H9.74v-3.34H.06v3.34zm2.226 6.914c0 1.69.42 2.92 1.26 3.692.84.771 1.982 1.157 3.428 1.157a9.09 9.09 0 001.655-.132c.469-.088.825-.186 1.07-.293v-3.208a3.458 3.458 0 01-.66.205 3.227 3.227 0 01-.688.073c-.498 0-.874-.132-1.128-.395-.254-.274-.381-.81-.381-1.611V24.337H2.358v4.892l-.073.337v8.965zm8.877-2.68c0 2.295.698 4.13 2.095 5.507 1.396 1.368 3.335 2.051 5.815 2.051 1.7 0 3.11-.317 4.234-.952 1.133-.635 1.938-1.47 2.417-2.505l-3.487-1.655a4.338 4.338 0 01-1.289 1.274c-.537.352-1.186.528-1.948.528-1.064 0-1.875-.362-2.432-1.084-.547-.733-.82-1.734-.82-3.003v-.982c0-1.172.254-2.119.762-2.841.517-.733 1.27-1.1 2.256-1.1.869 0 1.528.26 1.977.777.46.518.689 1.152.689 1.905v.248h-7.412v2.623h11.909v-1.48c0-2.275-.63-4.062-1.89-5.361-1.25-1.3-3.003-1.948-5.259-1.948-2.256 0-4.091.688-5.508 2.065-1.406 1.367-2.109 3.188-2.109 5.464v.469zM28.315 43H32.9v-9.668a3.217 3.217 0 011.114-1.392 2.727 2.727 0 011.596-.512c.694 0 1.23.185 1.612.556.38.362.571.987.571 1.875V43h4.6v-9.39c0-2.07-.474-3.53-1.421-4.38-.948-.85-2.178-1.274-3.692-1.274-1.015 0-1.909.195-2.68.586-.772.39-1.348.898-1.729 1.523h-.059l-.073-1.787h-4.424V43zm15.66-11.382h9.682v-3.34h-9.682v3.34zm2.226 6.914c0 1.69.42 2.92 1.26 3.692.84.771 1.982 1.157 3.428 1.157.634 0 1.186-.044 1.655-.132.469-.088.825-.186 1.07-.293v-3.208a3.458 3.458 0 01-.66.205 3.227 3.227 0 01-.688.073c-.498 0-.874-.132-1.128-.395-.254-.274-.381-.81-.381-1.611V24.337h-4.483v4.892l-.073.337v8.965z" fill="#042940"/><path d="M63.15 47.541c.742.527 1.68.972 2.812 1.333 1.142.371 2.392.557 3.75.557 2.266 0 4.111-.655 5.537-1.963 1.426-1.3 2.139-3.17 2.139-5.61v-13.58h-4.439l-.058 1.787h-.074c-.341-.605-.903-1.103-1.684-1.494-.781-.39-1.646-.586-2.593-.586-1.904 0-3.418.684-4.541 2.051-1.123 1.367-1.684 3.154-1.684 5.361v.47c0 2.206.57 3.989 1.713 5.346 1.143 1.357 2.652 2.036 4.527 2.036 1.045 0 1.919-.17 2.622-.513.703-.351 1.255-.83 1.655-1.435v.967c0 1.357-.351 2.338-1.055 2.944-.703.615-1.567.923-2.592.923a7.412 7.412 0 01-2.696-.498c-.86-.332-1.48-.674-1.86-1.026l-1.48 2.93zm3.808-11.558v-.688c0-1.172.249-2.129.747-2.871s1.255-1.113 2.27-1.113c.694 0 1.285.195 1.773.585.488.381.84.86 1.055 1.436v4.658c-.205.508-.552.962-1.04 1.362-.479.4-1.06.601-1.744.601-1.035 0-1.806-.366-2.314-1.099-.498-.732-.747-1.689-.747-2.87zM80.668 43h4.644v-9.17a3.882 3.882 0 011.275-1.553c.566-.4 1.177-.6 1.831-.6a5.23 5.23 0 011.318.161v-3.72a2.286 2.286 0 00-.483-.118 3.233 3.233 0 00-.689-.073 3.28 3.28 0 00-1.948.615 4.679 4.679 0 00-1.347 1.494h-.059l-.059-1.758H80.67V43zm10.035-7.134c0 2.295.723 4.126 2.168 5.493 1.445 1.368 3.345 2.051 5.698 2.051 2.344 0 4.239-.683 5.684-2.05 1.445-1.368 2.168-3.199 2.168-5.494v-.483c0-2.285-.723-4.112-2.168-5.479-1.445-1.377-3.34-2.065-5.684-2.065-2.343 0-4.243.688-5.698 2.065-1.445 1.367-2.168 3.194-2.168 5.479v.483zm4.688-.688c0-1.26.273-2.232.82-2.915.557-.684 1.343-1.026 2.358-1.026 1.006 0 1.787.342 2.344 1.026.557.683.835 1.655.835 2.915v.879c0 1.27-.273 2.25-.82 2.944-.547.693-1.333 1.04-2.359 1.04-1.025 0-1.811-.347-2.358-1.04-.547-.693-.82-1.67-.82-2.93v-.893zm13.447 2.344c0 2.08.469 3.569 1.406 4.467.938.889 2.149 1.333 3.633 1.333 1.016 0 1.909-.19 2.681-.571.781-.38 1.381-.894 1.801-1.538h.059l.073 1.787h4.424V28.278h-4.6v9.698a3.43 3.43 0 01-1.084 1.362 2.564 2.564 0 01-1.611.542c-.674 0-1.206-.186-1.597-.557-.39-.37-.585-1.035-.585-1.992v-9.053h-4.6v9.244zm17.388 11.645h4.585v-7.661c.4.556.966.996 1.699 1.318.742.313 1.596.469 2.563.469 1.856 0 3.36-.674 4.512-2.021 1.152-1.358 1.728-3.17 1.728-5.435v-.469c0-2.285-.581-4.092-1.743-5.42-1.152-1.328-2.671-1.992-4.555-1.992-.977 0-1.856.195-2.637.586-.772.38-1.323.864-1.655 1.45h-.074l-.058-1.714h-4.365v20.889zm4.585-11.162v-4.776c.214-.507.566-.952 1.054-1.332.489-.391 1.094-.586 1.817-.586.996 0 1.738.341 2.226 1.025.488.674.733 1.621.733 2.842v.879c0 1.21-.245 2.168-.733 2.87-.478.694-1.22 1.04-2.226 1.04-.694 0-1.294-.194-1.802-.585-.508-.39-.864-.85-1.069-1.377z" fill="#005C53"/></svg>