<svg width="40" height="23" viewBox="0 0 40 23" fill="none" xmlns="http://www.w3.org/2000/svg"><path d="M2.03 23c-.833 0-1.432-.372-1.798-1.117-.366-.745-.3-1.456.2-2.133L8.419 8.936c.4-.542.932-.812 1.597-.812.666 0 1.198.27 1.598.812l7.388 10.002h14.975L23.994 5.433l-4.992 6.702-2.496-3.351 5.89-7.972c.4-.541.932-.812 1.598-.812.665 0 1.198.27 1.597.812l13.977 18.939c.5.676.566 1.387.2 2.132-.366.745-.965 1.117-1.797 1.117H2.029zm3.993-4.062h7.987l-3.994-5.432-3.993 5.432zm0 0h7.987-7.987z" fill="#042940"/></svg>