<svg width="40" height="40" viewBox="0 0 40 40" fill="none" xmlns="http://www.w3.org/2000/svg"><path d="M10 18.333a1.667 1.667 0 100 3.334 1.667 1.667 0 000-3.334zm9.767-2.583L7.85 3.817a1.674 1.674 0 00-2.367 2.366l2.167 2.15h-.983a5 5 0 00-5 5v13.334a5 5 0 005 5h24.316l4.5 4.516a1.666 1.666 0 002.367 0 1.667 1.667 0 000-2.366L19.767 15.75zm-1.234 3.483l2.234 2.234a1.668 1.668 0 01-.767.2A1.667 1.667 0 0118.333 20c.004-.268.073-.53.2-.767zm-11.866 9.1A1.667 1.667 0 015 26.667V13.333a1.667 1.667 0 011.667-1.666h4.316l5.167 5.166A5 5 0 0015 20a5 5 0 005 5 5 5 0 003.167-1.15l4.483 4.483H6.667zm26.666-20H21.1a1.667 1.667 0 000 3.334h12.233A1.667 1.667 0 0135 13.333v12.234a1.667 1.667 0 003.333 0V13.333a5 5 0 00-5-5zM31.667 20a1.667 1.667 0 10-3.334 0 1.667 1.667 0 003.334 0z" fill="#042940"/></svg>