<svg version="1.0" xmlns="http://www.w3.org/2000/svg" width="933.333" height="933.333" viewBox="0 0 700 700"><path d="M327.5 218.8c-3.3.2-6.3.9-6.7 1.5-.6.9-.8.9-.8-.1 0-1.3-6.2-1.5-8.5-.3-.5.3-1.6.6-2.3.7-.7.1-2 .8-2.8 1.5-1.7 1.4-5.6 2-4.8.8.2-.4 0-1.1-.6-1.4-.6-.4-1-.3-.9.2.3 2-.2 3.4-1.1 2.8-.6-.3-1.3.1-1.7 1.1-.5 1.4-.8 1.3-2-.7-.9-1.5-1.2-1.7-.9-.5.5 1.4.2 1.7-.9 1.2-1.1-.4-1.4-.2-.9.6.5.8.2.9-1 .5-1.3-.5-1.7-.3-1.3.6.6 1.6-2.5 1.9-3.5.3-.5-.7-.8-.4-.8.7 0 2-2.2 1.8-3.2-.3-.6-1.1-.7-1-.7.5.2 3.6-.1 4.6-1.1 4-.6-.4-.8-1-.5-1.5.3-.5.1-1.2-.5-1.5-.6-.4-.9-.1-.8.6.2.7-.3 1.3-.9 1.4-1.5 0-1.8 1.3-.7 2.3.4.4.4.1-.1-.7-.6-1-.4-1.2.4-.7 1.9 1.2.4 2-3.7 2.2-3.1 0-3.7.4-3.6 2.1 0 1.3-.5 1.9-1.2 1.6-.7-.2-1-1.2-.8-2.1.5-1.5.4-1.4-.6.1-.6.9-.8 2.3-.4 3 .4.6.4.9-.1.5-.4-.4-1.5-.2-2.3.5-1.3.9-1.4.9-.8-.1 1.1-1.8-.9-1.5-2.5.5-1 1.1-1 1.4-.1.9.7-.4 1.2-.2 1.2.4 0 .6-1 1-2.2.8-1.7-.2-2.3.2-2.3 1.7 0 1.4-.6 1.9-1.9 1.7-1.4-.3-1.7.1-1.2 1.4.6 1.5.4 1.5-1.1.3s-1.6-1.2-1.1.2c.5 1.2.1 1.5-1.9 1.3-1.8-.2-2.3.2-1.9 1.2.3.8 0 1.4-.6 1.4s-.8.3-.5.6c.3.4-1.6 2.7-4.3 5.2-2.7 2.5-4.7 4.9-4.5 5.3.3.4-.3.6-1.2.4-2-.3-4.3 1.2-4.3 2.8 0 .6.7.2 1.5-.9.8-1 1.5-1.4 1.5-.7 0 .6-.5 1.5-1 1.8-.6.4-.8 1.1-.5 1.6.3.5-.2.6-1.1.2-1.2-.4-1.5-.3-1 .5.4.7.2 1.2-.3 1.2-.6 0-1 .5-.8 1.2.1.7-.4 1.2-1 1.3-1.5 0-5.7 4.5-6.1 6.4-.2.8.3 1.1 1.3.8.8-.4 1.5-.4 1.5-.1 0 .2-1.1.9-2.5 1.4-1.4.5-2.4 1.5-2.3 2.2.2.7-.4 1.2-1.2 1-1.2-.3-1.2-.1-.3.9 1.3 1.3.7 3.9-.9 3.9-.7 0-.6-.5.1-1.3.8-1 .7-1.4-.2-1.4-1.4 0-1.5.2-1.9 5.4-.2 1.7-.7 3.5-1.2 4-.5.4-.6.3-.2-.4.3-.6.2-1.4-.3-1.8-.6-.3-.8.6-.5 2.1.4 2.1.2 2.5-1.1 2-1.3-.4-1.4-.2-.5 1.4 1 1.8-.2 3-1.3 1.2-.2-.4-.2-.1-.1.5.2.7-.3 1.9-1 2.5-1.2 1.1-1.1 1.5.6 2.4 1.8 1 1.8 1.2.4 1.7-1.1.5-1.5.3-1-.5.4-.7.3-.8-.5-.4-.6.4-.9 1.1-.6 1.6.3.5.1 1.1-.5 1.5-.6.4-.8 1.1-.4 1.6.3.5.1 1.6-.5 2.3-.7.8-1 2-.9 2.7.2.8-.3 1.3-1 1.1-.8-.1-1.1.2-.7.8.3.6 1 .8 1.5.5.5-.3 1.2 0 1.6.7.4.7.4 1-.1.6-1.3-1.2-3.5 1.2-2.8 2.9.4 1 .2 1.4-.4 1-.5-.3-.9.4-.8 1.6.1 1.2.7 2.2 1.2 2.2.6 0 1.5.4 2 .8.4.5.4.8-.2.7-2.8-.6-3.8 0-2.5 1.5 1.1 1.3 1 1.4-.2 1-.8-.3-2.3.4-3.4 1.6-1 1.3-1.3 1.9-.5 1.4.9-.5 1.2-.4.7.3-.4.6-1.3.9-2.1.5-1.3-.5-2 .7-1.6 3 .1.4-.9.1-2.2-.8-1.3-.8-2.7-1.2-3.2-.8-.4.5-.5.3-.2-.3.4-.6-.4-1.6-1.8-2.2-1.8-.8-2.5-.8-2.9.1-.3.7-.4.3-.1-.9.4-1.6 0-2-2-2-1.7 0-2.4.4-2.1 1.3.7 1.7.1 1.6-1.8-.3-1.2-1.2-2-1.3-3.3-.4-1.6 1-1.6 1.1-.1.6.9-.2 2.2.1 2.8.9.9 1.1.7 1.2-.9.8-1.6-.4-1.9-.1-1.7 1.4.3 1.2-.1 2-1 2-1 0-1.1-.4-.3-1.3.7-.8.7-1.4-.1-1.9-1.2-.8-1.2-.9-1.4 4-.2 4.3 1 6.9 2.7 5.8.6-.3.7-.1.3.6-.4.6-1.2.8-1.8.5-.8-.5-.9-.1-.5 1 .4 1 .7 2.2.7 2.7 0 .6.6.7 1.3.3.9-.6.9-.5 0 .7-.9 1.1-.9 1.9-.2 2.6.6.6.5 1-.5 1-.8 0-1.3-.8-1.1-1.9.2-1 0-1.6-.5-1.3-.4.3-.6 1.9-.3 3.6.3 2.4.2 2.9-.9 2.3-.8-.5-.7.1.4 1.6.9 1.4 2.2 2.4 2.8 2.2.6-.1.9.2.5.8-.3.6-1.1.7-1.7.4-.8-.5-.9-.1-.5 1 .4 1 .7 2.2.7 2.7 0 .6.6.7 1.3.3.8-.5.8-.2-.2.9-1.6 2-2.5 2.3-1.5.4.4-.6.3-.9-.1-.4-.5.4-1 1.7-1.2 2.9-.3 1.8-.1 1.9 1.2.8.9-.7 1.8-1 2.2-.6.3.3.1.6-.5.6-1.6 0-1.5 2.7.1 3.4.6.3.3.4-.9.1-1.4-.4-2.1 0-2.1.9s.4 1.3.9 1c.4-.3.8 0 .8.6s.5.8 1.2.4.8-.3.4.5c-.4.6-1.2.8-1.8.5-.8-.5-.9-.1-.5 1 .4 1 .7 2.2.7 2.7 0 .6.6.7 1.3.3.8-.5.8-.2-.2.9-1.6 2-2.6 2.3-1.5.4.5-.8.2-.8-.9.2-.9.7-1.7 1.6-1.7 1.9 0 .3.3.2.7-.1 1.1-1.1 3.4 1.4 2.5 2.7-.6.6-.4 2.3.4 4.1.8 1.9 1.3 2.3 1.4 1.2 0-.9.5-1.7 1.1-1.7.6 0 .9.6.6 1.3-.3.7.3 1.3 1.4 1.3 1.1 0 1.5-.4.9-1.1-.5-.6.2-1 2-1 1.6-.1 2.7.2 2.4.6-.2.4.9.9 2.5 1.1 2.3.3 2.8.1 2.3-1.1-.5-1.4-.4-1.4 1.4-.1 1 .8 1.6 1 1.2.6-.4-.5 0-1.5 1-2.3 1.4-1.2 1.4-1.4.1-1-.9.3-1.6-.1-1.6-.9 0-.9.6-1.3 1.5-.9 1.1.4 1.2.2.6-.7-1.1-1.5-1.1-3.8-.2-5.4.4-.6.1-1.1-.7-1.1-.8 0-1.1.5-.8 1 .4.6.1.7-.7.2-1-.6-.7-1.3 1.1-2.7 1.3-1.1 1.8-1.7 1.2-1.3-1.6.8-1.7-1.1-.3-2 .7-.4.7-1.2.2-1.8-.4-.7-.8-1.9-.7-2.7.1-.8-.2-2.3-.7-3.2-.7-1.4-.5-1.6.9-1.1 1.6.6 1.6.5.4-1-.7-.9-1-2.4-.7-3.3.6-1.5.4-1.5-1-.3-1.6 1.3-1.6 1.2-.6-.8 1.6-2.9 1.5-4.6 0-3.7-1 .6-1 .5-.1-.7.6-.8 1.1-1.8 1.1-2.2 0-.5.4-1.2.8-1.5.4-.4.4-.1-.1.7-.5 1-.4 1.2.3.7.9-.5.9-1.3.2-2.7-1-1.8-.6-2.3 1.3-2 .4 0 .7-.3.7-.9 0-.5.6-1 1.4-1 .8 0 1.6-.3 1.9-.8.2-.4.2-.1.1.5-.2.7.1 1.3.5 1.3.5 0 1.2-.6 1.4-1.3.3-.6.3.1.2 1.8-.2 1.6-.4 3.4-.4 3.8-.1.5-.6.5-1.3.1-.7-.4-.8-.3-.4.4.4.6 1.4.9 2.4.6 1.4-.5 1.4-.3-.2 1-1.1.9-1.4 1.6-.8 1.6.7 0 1.2.5 1.2 1.1 0 .5-.5.7-1.2.3-.6-.4-.8-.3-.4.4.3.5.3 1.2-.1 1.5-.5.2-.2.2.6 0s1.1.2.7 1.2c-.3.8 0 1.5.7 1.5.8 0 .9.3.1.8-1.7 1.1-1.3 6.2.5 5.9 1.1-.1 1.6.9 1.8 3.8.5 6.7.5 7 1.6 8.2.5.8.6 1.3 0 1.3-.5 0-1.5-.6-2.3-1.3-1.2-1-1.2-.9-.1.5.7 1 1 1.8.5 1.8-.4 0-.3.5.3 1.1.6.6.9 1.7.7 2.3-.3.7.7 1.8 2.2 2.5 1.5.6 2.4 1.5 2 1.8-.3.3-.1 1.2.5 1.9.7.8.6 1.4-.2 2-.8.5-.9.3-.4-.6.5-.8.4-1.1-.3-.6-.6.4-.9 1.3-.6 2.1.4.8 1 1.3 1.4 1 .4-.3 1.1.2 1.4 1.1.3.8.2 1.3-.3.9-.8-.4-.8.3-.2 3.4.1.2.8-.2 1.6-.9.9-.7 1.8-1 2.2-.6.3.3.1.6-.5.6-.7 0-1.2.7-1.2 1.6 0 .9.5 1.2 1.3.8.8-.5.8-.2-.2.9-1.2 1.5-1.1 1.7.5 1.7 1.8.1 1.8.1-.1 1.6-1.9 1.6-1.9 1.6.5.9 2.3-.7 2.4-.7 1 1s-1.3 1.7.6.7c1.6-.9 2.1-.8 2.1.3 0 .8-.4 1.2-.8 1-.4-.3-.9.2-1.2 1-.4.8-.1 1.2.6 1 .7-.2 2.3 1 3.7 2.8 1.4 1.7 1.9 2.8 1.3 2.4-.7-.5-1.3-.4-1.3.1s1 1.4 2.3 2.1c1.2.6 1.4.9.5.7-1-.3-2 0-2.4.6-.4.6-.3.8.3.5.6-.4 2.2.2 3.4 1.3 1.4 1.1 1.8 1.9 1.1 2-.7 0-1.1.4-.7.9.3.6 1.4.8 2.5.6 1.2-.2 1.8 0 1.5.6-.4.5-1 .7-1.5.4-.5-.3-1.2-.1-1.5.5-.4.6-.3 1 .2.9.4-.1 1.6-.1 2.7 0 1.6.1 1.7.3.5 1.8-.8.9-.9 1.4-.4 1.1.6-.3 1.6 0 2.3.8 1 1 1 1.4.1 1.4-.7 0-.9.3-.6.6.4.4 1.4.1 2.3-.7 1.3-1.1 1.5-1.1 1.4.2-.5 3 0 4.1 1.5 3.5.9-.3 1.8.1 2.1.9.4.8 1.1 1.2 1.7.8.6-.4.7-.1.2.7-.6 1-1.1.9-2.2-.5-.7-1.1-1.3-1.5-1.3-.9 0 .5.9 2 1.9 3.3 1.4 1.8 2 2.1 2.6 1.1.6-.9.4-1.1-.5-.5-.9.5-1.1.4-.6-.4 1.2-1.8 2.4-.4 2 2.5-.1 1.4 0 2.3.3 2 .4-.3 1.3 0 2.1.7.9.6 1.3.7.9.1-.3-.6 0-1.1.7-1.1.8 0 1.2 1 1 2.4-.1 1.2.2 2.3.8 2.3.6 0 .7-.8.4-1.8-.6-1.6-.5-1.6.7 0 .8 1 1.7 1.5 2.1 1.1.4-.4.4.1 0 1.2-.7 1.8-.6 1.9 1.1.5 1.7-1.4 1.8-1.3 1.2.4-.5 1.4-.3 1.7.8 1.3 1.6-.7 4.8 3.1 3.8 4.6-.3.6-.1.7.6.3.6-.4.9-1.3.5-1.9-.3-.7 0-.5.8.4.7.9 2.5 1.9 4.1 2.3 1.7.4 2.7 1.3 2.7 2.5 0 1.4.6 1.8 2.9 1.5 2-.2 3.1.2 3.5 1.3.5 1.2.3 1.3-.7.5-.7-.6-1.8-.7-2.6-.3-.9.6-1 1.1-.2 1.5.6.4 1.1.2 1.1-.5 0-.8.5-.7 1.7.2.9.8 1.9 1.4 2.2 1.4.3 0 .5.3.4.6-.1.4 1.6.5 3.7.4 2.2-.1 3.7.2 3.4.6-.3.5-1 .6-1.6.3-.6-.4-.8-.2-.5.4.4.5 1.7.8 3 .5 1.5-.3 1.8-.2.9.4-.9.7-.4 1 1.7 1 1.9 0 2.8-.4 2.4-1.1-.4-.6.1-.5 1 .3.9.7 1.7 1 1.7.6s.6-.2 1.3.4c.8.6 1.7.7 2.2.3.4-.4.2.3-.4 1.5-1 1.9-.9 2.2.4 1.7.8-.4 2.2-.1 2.9.5 1.1.9 1.6.9 2.2 0 .4-.7.3-.9-.3-.6-.6.4-1.7-.1-2.4-1-1.2-1.5-1.2-1.6.1-.8 1.5 1 2 1.1 4.1 1.4.5 0 .7.7.3 1.3-.5.8 0 .7 1.1-.2 1.4-1.1 1.7-1.1 1.1-.1-.7 1-.4 1.2 1.2.7 1.2-.4 2.3-.2 2.8.5.4.7.3.9-.4.5-.6-.3-1.3-.2-1.6.3-.7 1.1 1.3.9 3.3-.3 1-.6 1.2-.5.7.2-.4.7-.1 1.2.9 1.2s1.3-.5.9-1.3c-.6-.9-.5-.9.7 0 2.1 1.7 42.5 2.1 41.5.4-.5-.7 1.7-1.9 4.6-2.5.3 0 1-.4 1.4-.8.4-.4 1.3 0 2 1 1.1 1.4 1.5 1.5 2.6.3.9-1 .9-1.2.1-.7-.7.4-1.3.2-1.3-.3 0-1.7 1.8-1.3 3 .6 1 1.6 1.1 1.5.7-.5-.3-1.2-.1-1.9.4-1.6.6.3 1.8 0 2.7-.8 1.5-1.2 1.6-1.1.4.4-1.2 1.5-1.1 1.7.6 1.5 1.3-.1 1.8-.6 1.4-1.7-.5-1.3-.3-1.3 1.1-.2 1.4 1.2 1.6 1.1 1.2-1-.4-2.2-.4-2.2 1-.4 1.2 1.6 1.5 1.7 1.5.4 0-1.1.8-1.4 2.8-1.2 2.6.2 2.6.2.7-1.2-1.8-1.3-1.7-1.4 1.4-.8 2.1.4 3.2.3 2.8-.2-.3-.6-.1-1.6.5-2.4.8-1.2.9-1.2.4.2-.3 1-.1 2 .4 2.3.6.4 1-.1 1-1 0-1.2.5-1.5 1.6-1.1 1.4.5 1.5.4.5-.8-1.1-1.3-.9-1.4 1.6-.7 2.2.7 3 .5 3-.5 0-.7-.5-1-1-.7-.6.3-.7.1-.3-.6.6-.9 1.1-.9 2.1-.1 2 1.6 3.7.2 2.9-2.3-.6-2.2-.6-2.2 1.1-.2.9 1.1 1.4 1.5 1.1.8-.4-.6-.2-1.4.4-1.8.6-.4.7-1.1.4-1.7-.4-.7-.2-.8.4-.4.6.4.9 1.4.6 2.4-.5 1.4-.3 1.4 1-.2.8-1 1.3-2.3.9-2.9-.3-.6-.1-.7.6-.3.6.4.8 1.2.5 1.8-.5.7-.2.8.5.4.7-.5 1-1.4.7-2.2-.3-.9.2-1.4 1.4-1.4 1.1 0 2-.6 2-1.4 0-1.9 3.2-3 4.2-1.4.5.9.8 1 .8.1 0-.6-.4-1.5-1-1.8-.5-.3-1-1.1-1-1.6 0-.6.7-.3 1.6.5 1.6 1.7 3.4 1.3 3.4-.7 0-.7-.4-.6-1.1.3-.9 1.3-1 1.3-.6 0 .2-.8 1.6-1.6 3.1-1.8 2.6-.3 2.7-.4.9-1.7-1.7-1.3-1.7-1.4.5-.8 1.3.3 2.2.1 2.2-.6s-.5-.9-1.2-.5-.8.3-.4-.5c.6-.9 1.1-.9 2.2 0 .8.6 1.7.9 2.1.5.3-.3.2-.6-.4-.6-.6 0-1.4-.7-1.7-1.6-.3-.8-.2-1.3.3-1 .5.3 1.4-.1 2.1-.9.7-.8 1.9-1.5 2.7-1.5.8 0 1.2-.4.9-.9-.3-.5.2-1.5 1.1-2.2 1.4-1.2 1.6-1.2.8 0-.5 1-.4 1.2.4.7.8-.6.9-1.1.2-2-1.4-1.7 2.2-5.2 4.1-4 1 .6 1 .4-.1-.9-1.2-1.5-1.2-1.7.2-1.1 1.2.4 1.5.1 1.2-1.5-.3-1.9-.2-2 1.8-.9 2 1 2.1 1 .8-.5-1.1-1.4-1.1-1.7 0-1.8.8-.1 1.8-.1 2.2 0 .5.1.6-.3.2-.9-.3-.6-1.2-.7-1.8-.3-.8.5-.8.2 0-.9.7-.8 1.2-1.7 1-1.9-.1-.2.4.3 1.2 1.1 1.1 1.3 1.2 1.2.6-.7-.4-1.6-.2-2.2.7-2 .7.2 1 .2.6 0-1.5-.8-.8-2.5.7-1.9 1.3.4 1.3.2.5-1.4-.9-1.6-.7-1.8 1.1-1.5 1.8.4 1.9.2.7-1.2-.8-1-.8-1.4-.1-1 .6.4 1.4.3 1.8-.3.3-.5.1-1-.4-1-.6 0-1.1-.5-1.1-1 0-.6.7-1 1.6-.8 1 .2 2-.7 2.5-2 .6-1.7.6-2.1-.3-1.6-.8.5-.9.2-.5-1 .4-1 .7-2 .7-2.2 0-.3.4-.3.9 0s1.1-.1 1.4-.9c.4-.8.1-1.3-.6-1.1-.7.1-.8.1-.4-.2.4-.2.3-1-.2-1.6-.8-.9-.7-1.3.4-1.3.8 0 1.2.4.9.9-.3.4 0 .8.6.8.7 0 1-1.2.8-2.7-.2-1.5.2-2.8 1-3 .6-.3 1.2 0 1.2.7 0 .6-.5.8-1.2.4s-.8-.3-.4.5c1 1.6 3.8-.6 3-2.3-.3-.6.5 0 1.7 1.4 1.3 1.5 2 1.8 1.6.8-.7-2.1 1.8-4.5 2.9-2.7.4.8.3.9-.4.5s-1.2-.2-1.2.4c0 1.2 3.8.4 5.5-1.1.5-.5 2-.9 3.3-.9 2.2 0 2.3-.2 1.1-1.7-1.3-1.5-1.2-1.5.8-.5 1.4.8 2.4.9 2.8.2.4-.6 1.1-.7 1.7-.4.6.4.5-.3-.2-1.6s-.8-2-.2-1.6c.6.4 1.5-.2 2.1-1.1.8-1.4 1.1-1.5 1.1-.3s.3 1.1 1.1-.3c.6-.9 1.5-1.4 2.1-1.1.6.4.8.2.4-.4-.3-.6-.2-1.3.4-1.7.6-.4.7-1.1.4-1.7-.5-.8-.1-.9 1.2-.5 1.8.7 1.8.7 0-.8-1.1-.8-1.4-1.5-.8-1.5.7 0 1.2-.9 1.2-2.1 0-1.1.4-1.8.8-1.5.5.3.9-.2.9-1s-.6-1.3-1.4-1c-.7.3-1.3.1-1.3-.4 0-1 1.5-1.4 3.4-1.1.5.1.4-.5-.4-1.3-.7-.9-.9-1.6-.5-1.6.5 0 0-1-1.1-2.1-1.9-2.2-1.9-2.2.4-1 1.2.6 2.2.9 2.2.7 0-.3-1-1.5-2.2-2.7-1.8-1.7-1.9-2.1-.5-1.6.9.4 1.7.3 1.8-.1 0-.4.2-1.5.4-2.5.2-.9 0-1.5-.3-1.3-.4.2-1.6-.2-2.7-1-1-.8-1.3-1.4-.7-1.4.7 0 1.2-.9 1.2-2s-.5-2-1.1-2c-.8 0-.8-.4-.1-1.3.6-.7.6-2 .1-3.2-.9-1.8-.9-1.8-.5.2.2 1.3.1 2.3-.4 2.3-.4 0-1-1.4-1.3-3-.4-1.7-1.3-3-2.1-3-1.5 0-3.2-3.6-2.7-5.5.1-.5-.7-.1-1.8.9-1.3 1.2-2.1 1.4-2.1.7s-.5-.9-1.2-.5c-.9.5-.8.2.1-.9 1.2-1.5 1.2-1.7-.4-1.1-1.4.6-1.6.4-1-.6.6-1 0-1.2-2.4-.8-2.4.3-3.5 0-4.1-1.3-.6-1.1-1.7-1.5-3-1.2-1.5.4-2 0-2-1.6 0-1.4-.4-2-1.2-1.5-.6.4-.8.3-.4-.4.3-.6.2-1.3-.3-1.7-.6-.3-.8-1.2-.5-2 .4-.8 1.1-1.2 1.6-.9.6.4.6.9-.2 1.4-.9.5-.8.9.2 1.3 2.1.7 1.8-2.3-.2-3.5-1.1-.7-1.5-1.9-1.2-3.5.3-1.6 0-2.2-.9-2-.8.2-1.1.2-.6 0 .4-.3.7-1.1.7-1.9 0-.9-.5-1.2-1.2-.8-1 .5-1 .4-.1-.6 1.6-1.7.5-4-1.5-3.3-1.3.4-1.3.2.2-.9 1.5-1.2 1.6-1.7.6-2.3-.9-.6-1.1-.4-.5.6.5.8.4 1 0 .6-1.4-1.2-1.5-3.7-.2-3.7.7 0 .6-.4-.2-.9s-2.1-.6-3-.3c-1.3.5-1.3.3.2-1.2.9-1 1.4-2.3 1-2.9-.4-.7-.8-1.4-.9-1.7-.4-1.9-1.8-4-2.7-4-.5 0-.2.9.8 2s1.4 2 .9 2c-.5 0-1.8-1.2-2.8-2.7-1.6-2.2-1.7-2.9-.6-4.7.7-1.2.9-1.8.5-1.4-1 .9-3.5-1.7-3.5-3.6 0-.9.5-1.6 1.2-1.6.6 0 .8-.3.5-.6-.4-.4-1.4-.1-2.4.7-.9.8-1.4.9-1 .2.4-.6.3-1.5-.3-1.8-.6-.4-.8-1.6-.4-2.8.6-1.9.5-2-.9-.9-1.4 1.2-1.6 1.1-1.2-1 .4-2.2.4-2.2-1-.4-1.3 1.8-1.4 1.7-1.1-1.2.3-1.9-.1-3.6-1-4.3-1.2-1-1.3-.9-.7.7.6 1.6.5 1.7-.9.4-1.5-1.3-1.5-1.6-.2-2.6s1.3-1.2-.1-1.8c-.9-.3-1.3-.2-1 .4.3.6.1 1-.4 1-.6 0-1.1-.8-1.1-1.8s-.9-2.4-1.9-3.2c-1.1-.7-1.8-1.7-1.5-2.2.3-.4 0-.8-.6-.8s-.8-.5-.4-1.3c.6-.9.5-.9-.8 0-1.2 1.1-1.7.9-2.7-1.3-.6-1.4-.8-3-.5-3.6.4-.6.2-.8-.3-.5-1.2.7-3.6-1.6-2.8-2.6.3-.4.2-.5-.2-.2-.3.3-1.3-.1-2.1-.8-1.3-.9-1.4-.9-.8 0 .4.7.2 1.3-.3 1.3-.6 0-1.1-.7-1.1-1.5s-.7-1.6-1.5-1.6c-3.6-.3-4-.5-3.7-2.2.2-1.1-.2-1.5-1.3-1.1-1.1.5-1.4.2-.9-1 .4-1.2 0-1.6-1.6-1.6-1.3 0-1.9.4-1.4 1.2.4.7.3.8-.5.4-.6-.4-.9-1.2-.6-1.7.4-.5-.1-1.2-.9-1.5-.9-.3-1.3-1-1-1.5.3-.5 0-.9-.5-.9-.6 0-1.1.6-1.2 1.2 0 .7-.4.3-.9-.9-.7-1.6-1.4-2.1-2.7-1.6-1.6.6-1.7.5-.3-1.2.9-1.1 1-1.6.3-1.1-.7.4-1.3.3-1.3-.3s-.7-.7-1.7-.4c-1.2.5-1.4.3-.8-.8.6-1.1.5-1.2-.6-.2-.7.7-1.8 1.3-2.3 1.3-.7 0-.7-.3 0-.8.9-.5.8-1.1-.2-2-.8-.7-1.4-.8-1.4-.2 0 .5-.5 1-1.1 1-.5 0-.8-.4-.5-.9.9-1.4-2-2.1-3.3-.8-.9.9-1.1.8-.5-.6.5-1.3.2-1.6-1.2-1-1.2.4-1.5.3-1-.5.4-.7.2-1.2-.4-1.2-.6 0-.8-.5-.4-1.2s.3-.8-.5-.4c-.6.4-.9 1.1-.6 1.6.3.5 0 1.2-.6 1.6-.7.4-.9.3-.6-.3.4-.6-.2-1.8-1.3-2.8-1.1-1-2-1.5-2-1 0 .4-.6.3-1.3-.3-.9-.8-1.7-.8-2.7 0-1.2.8-1.2.9.2.4 1-.3 2-.1 2.2.3.3.5-.5.8-1.7.7-1.6-.1-2.1-.7-1.9-2.1.3-1.6.1-1.8-.9-.8-.7.7-1.8 1.3-2.3 1.3-.6 0-.4-.5.4-1 1.5-.9-.4-1.2-10.2-1.3-1.5 0-2.5-.4-2.2-.9.3-.5 1-.6 1.5-.3s.6 0 .3-.8c-.2-.7-1.1-1.4-1.9-1.4-.8 0-1.2.4-.9.9.3.4 0 .8-.5.8-.6 0-1.1-.5-1.1-1 0-.6-.7-1-1.6-1-.9 0-1.2.5-.8 1.2.6 1 .5 1-.7.1-1.6-1.3-15.3-2.1-26.4-1.5zm-15.5 2.7c-.7.9-1.5 1.3-1.8 1-.3-.3-1.5.3-2.6 1.2-2.1 1.8-2.1 1.8-.2-.4 1-1.3 2.2-2 2.7-1.8.4.3 1 .1 1.4-.5.3-.5.9-1 1.2-1 .3 0 0 .7-.7 1.5zm4.7-.2c0 .7-.9 1.3-1.9 1.3-1.8 0-1.8-.1-.2-1.3 1-.7 1.8-1.3 1.9-1.3.1 0 .2.6.2 1.3zM425 254c0 .5-.7.7-1.5.4-.8-.4-1.5-.8-1.5-1 0-.2.7-.4 1.5-.4s1.5.4 1.5 1zm1.7 3.2c-.3.8-.6.5-.6-.6-.1-1.1.2-1.7.5-1.3.3.3.4 1.2.1 1.9zm-196.1 18c.4.7.4 1-.1.6-.4-.4-1.4 0-2.2 1-1.3 1.5-1.3 1.5-.3-.6 1.2-2.5 1.6-2.7 2.6-1zM216 303.4c0 .2-.7.7-1.6 1-.8.3-1.2.2-.9-.4.6-1 2.5-1.4 2.5-.6zm-2.6 6.4c.3.5-.1.9-.9.9s-1.2-.4-.9-.9c.3-.4.7-.8.9-.8.2 0 .6.4.9.8zm-3.4 15.6c0 .2-.7.7-1.6 1-.8.3-1.2.2-.9-.4.6-1 2.5-1.4 2.5-.6zm259 6.6c0 .5-.5 1-1.1 1-.5 0-.7-.5-.4-1 .3-.6.8-1 1.1-1 .2 0 .4.4.4 1zm-263.3 2.2c.2 1.7 0 1.9-.7.8-.5-.8-.6-1.8-.4-2.2.8-1.2 1-1 1.1 1.4zm277.3 6.3c0 .5-.5.3-1-.5s-1-2-1-2.5c0-.6.5-.3 1 .5s1 1.9 1 2.5zm-302.6 1.7c-.3.4-.9.8-1.5.8-.5 0-.9-.4-.9-.8 0-.5.7-.9 1.5-.9s1.2.4.9.9zm306.4 2.9c-.3.8-.7.3-1.1-1-.4-1.7-.3-2.1.5-1.3.5.5.8 1.6.6 2.3zm-16 4.7c1.3 2 1.3 2.2-.1 1.7-.8-.4-1.8-.2-2.1.3-.3.5 1 .8 2.9.6 3.5-.2 3.5-.2 1.4 1.5-2 1.6-2 1.7-.3 3.1 1.7 1.4 1.8 1.4.5-.3-.9-1.1-1-1.7-.2-1.7.6 0 1.2.4 1.2 1 .1.5.2 1.6.3 2.2.1.7-.1 2-.5 2.9-.5.9-.3 2.1.4 2.9.8.9.8 1.1.1.7-.7-.4-1.4 0-1.7.8-.4.8-.1 1.2.6.9.7-.2 1.3.3 1.3 1.4 0 1.4-.6 1.8-2.1 1.4-2-.4-2-.4-.1 1 1.9 1.5 1.9 1.6-.1 2.6-1.1.6-2.4.8-2.8.4-.5-.4-.5-.2-.2.4.3.6 0 2.2-.8 3.7-.7 1.4-1.1 2.8-.8 3.1.3.3-.6 0-2-.7-1.5-.7-2.9-1.8-3.2-2.6-.4-1 .1-1 1.9.3 1.8 1.1 2.7 1.3 3.2.4.4-.6.3-.8-.3-.5-.6.4-1.8-.2-2.8-1.3-1.5-1.6-1.6-2.3-.6-3.3 1-.9 1.1-.8.6.8-.5 1.4-.4 1.6.3.6.5-.7.6-2.8.2-4.7-.4-1.9-.4-3.2 0-2.9.4.3 1.1-.2 1.4-1.1.3-.8.2-1.3-.3-1-.5.3-.8-.5-.7-1.8 0-1.3.4-2.2.9-1.9.4.2.7-.3.7-1.1 0-.9.5-1.6 1.2-1.6.6 0 .8-.3.5-.6-.4-.4-1.3-.1-2.1.5-1.3 1.1-1.4.8-1.1-1.6.2-1.5.4-3 .5-3.3.4-1 .7-2.5.8-4.3.2-2.3 2.1-1.8 4 1.1zm21.6 7c.3.5-.1.9-.9.9s-1.2-.4-.9-.9c.3-.4.7-.8.9-.8.2 0 .6.4.9.8zM179.5 358c.3.5.1 1-.4 1-.6 0-1.1-.5-1.1-1 0-.6.2-1 .4-1 .3 0 .8.4 1.1 1zm28 7.9c.3.5.2 1.2-.3 1.5-.5.3-.9-.1-.9-.9 0-1.7.3-1.9 1.2-.6zm284.2.6c0 .8-.4 1.2-.9.9-.5-.3-.6-1-.3-1.5.9-1.3 1.2-1.1 1.2.6zm-294 8.1c-.3.3-1.2.4-1.9.1-.8-.3-.5-.6.6-.6 1.1-.1 1.7.2 1.3.5zm274.6 0c-.7.3-.9 1.3-.6 2.2.4 1.4.3 1.4-.5.2-1.2-1.6-.7-3 1.1-2.9.9 0 .9.2 0 .5zm15.6 6c-.6.8-1.7 1.4-2.3 1.4-.6 0-.3-.5.7-1.1.9-.6 1.4-1.5 1.1-2.1-.4-.7-.2-.8.5-.4.9.6.9 1.1 0 2.2zm-291.8 4.7c-1 .9-1.1.8-.5-.6.3-1 .9-1.5 1.2-1.2.3.3 0 1.1-.7 1.8zm16.5 2.4c-.7.7-2.1.4-2.1-.5 0-.4-.4-1.4-.9-2.2-.6-.9-.1-.7 1.2.4 1.2 1.1 2 2.1 1.8 2.3zM454 408c0 .5-.2 1-.4 1-.3 0-.8-.5-1.1-1-.3-.6-.1-1 .4-1 .6 0 1.1.4 1.1 1zm-204.3 38.6c-.3.3-1.2.4-1.9.1-.8-.3-.5-.6.6-.6 1.1-.1 1.7.2 1.3.5zM400.5 464c.3.5.1 1-.4 1-.6 0-1.1-.5-1.1-1 0-.6.2-1 .4-1 .3 0 .8.4 1.1 1zm-119.2 4c.9 1.1 1.3 2 .7 2-.5 0-1.4-.9-2-2-.6-1.1-.9-2-.8-2 .2 0 1.1.9 2.1 2z"/><path d="M471.6 360.6c-.5 1.4-.4 1.5.9.4 1.7-1.4 1.9-2 .6-2-.5 0-1.2.7-1.5 1.6zm-108.5-140c0 1.1.3 1.4.6.6.3-.7.2-1.6-.1-1.9-.3-.4-.6.2-.5 1.3zm-59.4 1.1c.3.7.6 1.3.8 1.3.2 0 .5-.6.8-1.3.3-.8-.1-1.4-.8-1.4-.7 0-1.1.6-.8 1.4zm86.3 5.7c0 .2.8 1 1.8 1.7 1.5 1.3 1.6 1.2.3-.4s-2.1-2.1-2.1-1.3zm19 12.5c0 .6.4 1.3 1 1.6.6.3.7-.1.4-.9-.7-1.8-1.4-2.1-1.4-.7zm7.6 6.9c-.3.5.1.9.9.9s1.2-.4.9-.9c-.3-.4-.7-.8-.9-.8-.2 0-.6.4-.9.8zm-171 6c-.4 1-1.6 2.4-2.9 3l-2.2 1 2.2-.1c2-.1 5-4.3 3.9-5.4-.2-.2-.7.4-1 1.5zm-6.5 7.2c-1.3 1.1-1.9 2-1.4 2 .6 0 1.8-.9 2.8-2 2.3-2.5 1.7-2.5-1.4 0zm213.4 31.1c-1.1 1.6-.1 1.9 1.3.3.7-.8.8-1.4.3-1.4s-1.3.5-1.6 1.1zM77.4 315.8c.7 1.2-.4 1.6-3.4 1.3-1.1-.1-1.2 0-.3.6.8.6.9 1.4.3 2.3-1.2 1.9-1.3 3.3-.1 2.6.5-.3 1.1.3 1.4 1.5.4 1.6.3 1.8-.8.9-.9-.8-1.5-.8-2 0-.3.5.1 1.3.9 1.6.9.3 1.6 1 1.6 1.6 0 .5-.4.7-.9.4-.5-.4-.8.5-.7 1.9.2 1.3-.1 2.2-.5 1.9-.5-.3-1.2.2-1.6 1.2-.5 1.4-.8 1.3-1.9-.7-.7-1.3-1.3-1.8-1.4-1.2 0 .7-.5 1.3-1.1 1.3-.5 0-.7-.6-.3-1.3.6-.9.5-.9-.8 0-1 .9-1.6 3.4-1.7 8.3l-.2 7 4.3.1c2.4.1 4.5.1 4.8.1 1.1-.1.3 4.7-1 6.3-1.1 1.3-1.1 1.6 0 1.3 1-.2 1.3 1 1.2 4.5 0 3.3.3 4.5 1.1 4 .7-.4.6.1-.2 1-.7.9-.9 1.7-.4 1.7.6 0 .9 2.6.8 5.7-.3 7.2-.2 6.8-2.2 5.2-1.5-1.1-1.5-1 .1.8 1.6 1.9 1.7 2.5.6 3.8-1.1 1.3-1.1 1.6.1 1.3.8-.2 1.3.3 1.1 1-.1.8.2 1.1.7.7 1.2-.7 3.4 3.1 2.6 4.4-.3.5.5.7 1.7.4 1.9-.4 2-.3.8.7-1.3 1-1.1 1.1.7.7 1.5-.3 2-.1 1.6.9-.6 1.7.9 1.8 2.6.1.9-.7 1.1-.7.8-.1-.4.7 0 1.5.9 1.8.8.3 1.2.2.9-.4-.3-.6.1-.7.9-.4.9.3 1.3 1.1.9 1.7-.4.6 0 .8 1 .4s1.7-.1 1.7.5.3.8.6.5c.4-.4.1-1.3-.5-2.1-.9-1.1-.9-1.6 0-2.2.8-.5.9-.3.4.6-.6 1-.4 1.2.8.7 1-.4 1.4-.2 1.1.7-.3.7.2 1.3 1.1 1.3.9 0 1.4-.5 1.2-1.2-.3-.6.3-1.1 1.3-1.1s1.6.5 1.3 1.1c-.4.5-.3.7.2.3.4-.4 1.3-.4 1.9.2.8.6 1.2.2 1.3-1.3.2-1.7 0-1.9-.7-.7-.6.9-1 1-1 .3 0-2 1.8-2.4 2.9-.6 1.4 2.5 1.4.7-.1-2-1-2-1-2.1.6-.8 1.4 1.2 1.6 1.2 1-.3-.3-.9-1-1.6-1.5-1.6s-.9-.5-.9-1.1c0-.5.5-.7 1-.4.6.3 1-.3 1-1.5s-.4-1.9-.8-1.6c-.5.3-1.5-.6-2.2-1.9l-1.3-2.5-1.9 2.7c-1.9 2.8-1.9 2.8-1.3.3.6-2 .5-2.2-.5-1.3-1.5 1.4-4 .6-4-1.4 0-.8-.5-1.1-1.2-.7-.7.4-.8.3-.4-.5.4-.6 1.1-.9 1.6-.6.5.3 1.2.1 1.5-.5.4-.6.3-1-.2-.9-1.9.3-3-.2-3-1.6 0-1.1.4-1.2 1.4-.3 1.1.8 1.2.7.7-.6-.4-1-.1-1.6.7-1.6.8-.1.3-.8-1.1-1.6-1.4-.8-1.7-1.3-.8-1 1 .3 2 .1 2.3-.5.4-.5.3-.9-.2-.8-.4.1-1.5.1-2.3 0-1.2-.1-1.3-.3-.1-1 .7-.5 1.4-2.3 1.6-4 .1-1.7-.1-2.8-.6-2.5-1.7 1-.9-1.5.9-2.6 1.6-1.1 1.6-1.1 0-.6-1 .3-2 .1-2.3-.4-.4-.6.2-1 1.1-1 1.6 0 1.5-.2-.2-2.1-1-1.2-1.9-2.2-1.8-2.3 0 0 .6-1.1 1.3-2.3.6-1.3 1.5-2.2 1.9-2.2.4.1.9.1 1.2-.1 2.1-.7 6-.7 6 .1 0 .6-.4.7-1 .4-.6-.3-.7.1-.4.9.9 2.3 3.4-.6 2.9-3.3-.2-1.2 0-1.9.6-1.6.5.4.7 1 .5 1.4-.3.4.2.8 1 .8 1 0 1.1-.4.5-1-.6-.6-.7-1.7-.1-2.7.5-.9.5-2.2 0-3-.5-.8-.5-2.2.1-3.2.8-1.4.6-1.6-.7-1.1-1.2.4-1.5.3-1-.5s.1-1-1-.5c-1 .4-1.5.2-1.1-.4.3-.5 0-1-.8-1-2.2 0-1.8 1.2.8 2.4 1.3.6 2.4 1.8 2.4 2.7 0 .8-.4 1.3-.9 1-.5-.3-.6-.9-.3-1.3.2-.5-.6-1.3-2-1.9-1.8-.8-2.5-.8-2.9.1-.3.7-.4.3-.1-.8.4-1.5 0-2.1-1.4-2.1-1.1 0-1.7.4-1.5.8.3.4 0 .8-.6.8-.7 0-1-1.5-.7-4 .2-2.2-.1-4.8-.8-5.7-.7-1-1.1-3-1.1-4.5.2-2.5.1-2.6-1.6-1.1-1 .9-2.1 1.3-2.5 1-.3-.4-.2-.7.4-.7.6 0 1.4-.7 1.7-1.6.5-1.4.4-1.5-.9-.4-1.1.9-1.9 1-2.8.1-.8-.6-1.8-.7-2.3-.3-.5.5-2.2 1.4-3.8 2.1-2.6 1-2.8 1-1.7-.3.9-1.1.9-1.6 0-2.2-.8-.4-.9-.3-.5.4zm7.6 1.8c0 .8-.5 1.2-1 .9-.6-.4-.8-1.1-.5-1.6.9-1.4 1.5-1.1 1.5.7zm-8.5 2.4c.3.5.1 1-.4 1-.6 0-1.1-.5-1.1-1 0-.6.2-1 .4-1 .3 0 .8.4 1.1 1zm28.5 19.4c0 .2-.7.7-1.6 1-.8.3-1.2.2-.9-.4.6-1 2.5-1.4 2.5-.6zm-36 6.1c0 .2-.9.3-1.9.2-1.1 0-1.8-.5-1.5-.9.4-.6 3.4 0 3.4.7zm7.5 36.5c.3.5.2 1-.4 1-.5 0-1.3-.5-1.6-1-.3-.6-.2-1 .4-1 .5 0 1.3.4 1.6 1z"/><path d="M92.9 318.2c-.8 2.7-.5 3.6.9 3 1-.4 1.2-.7.4-1-.7-.2-1-.8-.6-1.3.3-.5.3-.9 0-.9s-.6.1-.7.2zm48.8 13c-1 1.1-2.2 1.7-2.5 1.3-.4-.3 0-1 .7-1.5 1-.5.6-.8-1.1-.7-1.4.1-2.4.7-2.1 1.3.2.6-.3 1.1-1.1 1.1s-1.3-.4-1.1-.8c.3-.4-.2-.9-1-1.2-.9-.4-1.2-.1-.9.7.3.8 0 1.7-.7 2.2-.7.4-1 .3-.5-.4 1-1.6-1.4-2.6-2.7-1.2-.9 1-.9 1.1.1.5 1.1-.6 1.2-.3.2 1.4-.6 1.2-1.6 1.9-2.2 1.5-.5-.4-1.5 0-2 .7-.8 1.1-.9 1.1-.5-.2.3-.9-.1-1.6-.8-1.6-.8 0-1.1.7-.7 1.6.5 1.4.3 1.4-1 .3-1.4-1.1-1.6-1-1.1 1 .4 2.3.4 2.3-1.2.3-1.7-2-1.7-2-1 .2.5 1.9.1 2.5-1.9 3.3-1.4.5-2.6 1.2-2.6 1.5 0 .4.5.3 1 0 .6-.3 1-.1 1 .4 0 .6-.5 1.1-1.1 1.1-.5 0-.7.6-.3 1.2.5.8 0 .7-1.1-.2-1.7-1.4-1.8-1.4-.6.7.9 1.7.9 2.3 0 2.3-.8 0-.8.4.1 1.5 1.1 1.3 1 1.4-.3.9-1.2-.4-1.5-.1-1.2 1.4.4 2-.8 2.3-3.5.8-.8-.4-.5.1.8 1.2 2.1 2 3.1 3.9 1.3 2.8-.5-.3-1.1.1-1.4.9-.4 1-.1 1.2 1.1.9 1.4-.5 1.3-.3-.2 1-1.8 1.5-1.8 1.6-.2 1.6.9 0 1.4.5 1.1 1-.4.6-1.2.7-1.8.3-.7-.4-.4.6.7 2.1 1 1.6 1.4 2.6.8 2.2-.5-.3-1.2.1-1.6.9-.3.8 0 1.7.6 2.1.7.5.8.2.3-.6s-.4-1.1.3-.6c.6.4.9 1.3.6 2.1-.4.8-1.1 1.2-1.7.8-.6-.3-.7-.1-.3.6.6.9 1.1.9 2.1.1 1.1-.9 1.2-.7.8.9-.3 1.2-.1 2.1.5 2.1.5 0 1.3.7 1.6 1.6.3.8.2 1.2-.3.9-.5-.3-1.2-.1-1.6.5-.3.5.2 1 1.1 1 1 0 1.5.3 1.1.6-.3.4.1 1.3.9 2.1s1.2 1.8.9 2.3c-.3.4.3 1.4 1.2 2.1 1.2 1 1.4 1 .9.1-.4-.6-.2-1.2.3-1.2.6 0 1.1.7 1.1 1.6 0 .8.3 1.3.8 1.1.4-.3 1.2.1 1.9.8 1 1.1 1 1.5 0 1.8-.9.4-.9.6 0 .6.6.1 1.4-.3 1.8-.9.7-1.1 3.5-.2 3.5 1.2 0 .7-.5.6-1.3-.1-1-.8-1.4-.7-1.4.3 0 1.4 1.4 1.6 3.4.3.6-.4 1.5-.2 1.9.4.5.8.3.9-.7.4-.8-.5-1.1-.4-.6 0 .9 1 6.7 1.1 9.2.1 1.6-.6 1.6-.4.4 1.1-1.2 1.5-1.2 1.6.3 1 .9-.3 1.9-.1 2.2.6.3.7.3-.1.1-1.6-.3-2.4-.2-2.7 1.1-1.7 1.7 1.5 1.9 2.4.2 1.4-.7-.4-.8-.3-.4.5.6.9 1.1.9 2.1.1s1.5-.7 1.9.2c.3.7.4.3.2-1-.2-1.2 0-2 .5-1.6.5.3.9 1.1.9 1.9 0 .8.4 1.7 1 2 .6.3.7-.1.4-1-.5-1.2-.2-1.4 1.2-.8 1.7.6 1.8.5.4-1.3-1.4-1.7-1.3-1.8.1-.7 1.2 1 1.8 1 2.9 0 .9-.9 1.1-.9.6 0-.4.8.1 1.1 1.4 1 1.1-.1 2-.7 2-1.5 0-.7-.5-1-1.2-.6-.6.4-.8.3-.4-.4.3-.6 1.5-.9 2.6-.7 1.1.2 2 0 2-.5s.9-.7 2-.5c1.1.2 2.3-.1 2.6-.7.4-.7.2-.8-.4-.4-.7.4-1.2.2-1.2-.4 0-.6-.4-.8-1-.5-1.6 1-1.1-.1.7-1.6 1.1-1 1.4-1 .9-.2-.4.7-.3 1.3.2 1.3 1.7 0 2.1-2.8.6-4-.8-.7-1.4-1.8-1.4-2.4 0-.6.5-.4 1 .4.8 1.2 1 1.1 1-.8 0-1.2-.5-2.1-1.2-2-.7.2-1.2-.2-1.1-.8.1-.6-.4-1.1-1.2-1.1-.7 0-1.1.7-.8 1.6.3 1-.2.7-1.4-.6-1.2-1.5-2.8-2.2-5-2.1-2.9.1-3.1.2-1.5 1.5 1.6 1.2 1.6 1.3-.2.6-1.5-.5-1.7-.3-1.1.8.7 1.2.6 1.2-.7.1-1.3-1-1.8-1-2.4-.1-.4.8-.3.9.4.5s1.2-.3 1.2.1c0 .5-.9 1.4-2.1 2.1-1.9 1.2-2 1.1-1.5-1l.6-2.3-1.1 2.2c-.7 1.3-1.6 2.3-2.1 2.3s-.6-.5-.2-1.1c.3-.6-.5-.3-2 .6-1.4 1-2.6 1.3-2.6.7 0-.6.6-1.3 1.3-1.6.6-.3-.2-.3-2 0-1.7.2-3.5-.1-3.8-.6-.4-.6-1.2-.7-1.9-.3-.7.4-.4 0 .7-.9 1.7-1.7 1.7-1.7-1.3-1.3-1.6.2-2.8 0-2.5-.5.3-.5.1-1.1-.4-1.5-.6-.3-.8-1.2-.4-2 .3-.8 0-1.5-.7-1.5-.6 0-.8-.5-.5-1.1.5-.6 1.2-.4 2.2.8 1.3 1.6 1.3 1.6.3-.5-1.3-2.7-.4-4.4 1.1-2.2.8 1.2 1 1 .6-.8-.3-1.2-.1-2.2.4-2.2s.9 1 1 2.2v2.3l.9-2.3c.5-1.2 1.2-2.2 1.5-2.2.4 0 .3.4 0 1-.3.5-.1 1 .5 1s.9.4.6.9c-1.1 1.8 2.4.5 4-1.5.8-1 1.3-1.4 1-.8-.3.7.1 1.5 1 1.8 1.1.4 1.5.2 1.1-.7-.3-.8.1-1.4.9-1.4.7 0 1.1.4.9.8-.4.6 1.5 1.5 5.3 2.4 1 .3 1 0 .2-1s-.8-1.5.1-2.1c.8-.5.9-.3.4.6-.6 1-.4 1.2.8.7.9-.3 1.9-.1 2.3.5.5.7.2.8-.6.3-.9-.5-1.1-.4-.6.4.4.6 1.2.9 1.7.5.5-.3.7-.9.4-1.4-.3-.4.2-1.1 1.1-1.4.8-.3 1.3-.2 1 .2-.3.4.4 1.3 1.5 2 1.2.8 1.9.9 1.9.1 0-.6.5-.7 1.3-.2 2 1.2 3.4 1.2 3.4-.3 0-.7-.5-1-1-.7-.6.3-.7.1-.3-.6.4-.6 1.5-.9 2.5-.6 1.2.3 1.7-.1 1.8-1.5.1-1.1-.2-1.8-.8-1.5-.5.4-.9.1-.9-.4 0-.6.6-1.1 1.4-1.1.8 0 1.8-.5 2.2-1.2.5-.7.3-.8-.6-.3-1 .6-1.1.2-.6-1.9.4-1.6.2-2.6-.4-2.6-.6 0-.8.6-.4 1.2.4.7.3 1-.1.6-.5-.5-1-2-1.1-3.4-.3-2.5-.2-2.5 1.2-.8 1.3 1.7 1.3 1.6.3-.8-.7-1.5-1.5-2.5-2-2.3-.4.3-1.1 0-1.5-.6-.4-.7-.3-.9.3-.6.6.4 1.3-.1 1.5-1.1.3-1.1 0-1.9-.8-1.9-.7 0-1 .5-.7 1.1.4.6-.1.5-1-.3-1.8-1.4-2.3-2.6-.8-1.6.5.3 1.2.1 1.6-.5.3-.5-.1-1-1.1-1-1.1 0-1.5-.6-1.1-2 .3-1.1 0-1.8-.7-1.7-.6.1-1-.4-.8-1.1.1-.8-.2-1.1-.7-.8-.5.4-1.4-.2-2-1.1-.6-1-1.1-1.3-1.1-.8 0 .6.5 1.6 1.2 2.3.9.9.9 1.2.1 1.2-.7 0-1.5-.9-1.8-2-.3-1.1-1.2-2-1.8-2-.7 0-.6-.4.3-1 .8-.5 1-1 .4-1s-1.4.3-1.8.7c-1 1.1-3.7 1.2-3 .2.3-.5 1-.6 1.6-.3.7.5.8.2.4-.5-.5-.7-1-1-1.3-.7-.3.3-1.4.1-2.4-.5-1.3-.6-1.9-.6-1.9.1 0 .5.5 1 1.2 1 .6 0 .8.3.5.6-.9.9-3.8-1.6-3.1-2.7.3-.5 0-.9-.5-.9-.6 0-1.1.7-1.1 1.5s-.5 1.5-1.1 1.5c-.6 0-.8-.9-.4-2 .8-2.4.5-2.4-1.8.2zM143 345c2.2-1.2 2.6-.1.8 1.9-.7.8.1.5 1.7-.5 2.7-1.7 2.9-1.7 1.6-.1-1.2 1.6-1.2 1.7.5 1 1.6-.6 1.7-.4.7.9-1.3 1.5-.8 2.8 1.1 2.8.6 0 .4-.5-.4-1s-1-1-.4-1c.5 0 1.9.7 3 1.5 1.9 1.5 1.9 1.5-.1.8-1.8-.6-1.9-.5-.6 1.1 1.1 1.3 1.1 1.6.1 1.4-.7-.2-1.5.3-1.8 1.1-.3.9 0 1.1.9.6.8-.5 1.1-.4.6 0-1.4 1.6-8.7 1.2-9.8-.4-.9-1.4-1-1.4-.5.1.3 1 .1 1.8-.4 1.8-.6 0-1-.5-1-1 0-.6-.5-1-1.1-1-.5 0-.8.4-.5.8.3.5-.1.9-.9.9s-1.5-.4-1.5-.9c0-.4-.4-.8-1-.8-.5 0-.7.8-.4 1.7.4 1.1.3 1.4-.3.7-.4-.6-1.6-1-2.6-.8-1.1.1-1.6 0-1.3-.3.3-.4.1-1.2-.5-2-.6-.7-.8-1.3-.4-1.3s1.4.8 2.2 1.7c1.3 1.6 1.3 1.6.4-.3-.6-1.2-.7-2.5-.3-2.9.4-.5-.2-.5-1.2-.1-1.5.5-1.7.4-.8-.7.7-.8.8-1.8.4-2.3-.4-.4.2-.2 1.2.6 1.8 1.4 1.9 1.3 1.3-.3-.4-1.1-.3-1.6.3-1.2.6.3 1 .1 1-.6 0-.8.5-.7 1.7.2 1.5 1.3 1.5 1.2.5-.8-1-1.9-.9-2 1-1.5 1.8.4 2 .2 1.4-1.4-.6-1.6-.4-1.6 1.4.4 1.7 1.8 2.5 2 4 1.2zm-4 21.6c0 .8-.5 1.2-1 .9-.6-.4-.8-1.1-.5-1.6.9-1.4 1.5-1.1 1.5.7zm10.4 0c.5 1.4.4 1.5-.9.4-1.7-1.4-1.9-2-.6-2 .5 0 1.2.7 1.5 1.6zm14 .1c.5 1.2.4 1.3-.7.5-.8-.7-1.6-.9-1.9-.6-.3.3-.8.1-1.1-.3-.3-.5.3-.9 1.3-1 1-.1 2.1.5 2.4 1.4zm-5.4 8.9c0 .8-1.9 1.3-2.4.6-.3-.5.1-.9.9-.9s1.5.2 1.5.3zM507.5 331c-.3.5-.4 1.4-.1 1.8.3.5-.1.9-.8.9-.8 0-1.3-.5-1.2-1.1.2-.6.1-.8-.1-.3-.3.4-.8.5-1.3.2-.4-.3-1.3.2-2 1-.8.9-.8 1.5-.2 1.5.6 0 1.2-.5 1.4-1.2.3-.7.7-.5 1.1.6.4.9.3 1.5-.2 1.1-2.3-1.3-3.7 4.5-1.5 6.1 1.3 1 1.3 1.2-.1 1.8-1.1.4-1.4.2-.9-.6.4-.7.3-.8-.5-.4-1.5 1-.5 2.6 1.7 2.7 1.4 0 1.3.2-.3.9-1.2.5-1.4.9-.6.9 1 .1.7.9-1 2.8-1.3 1.5-1.6 2.1-.6 1.4.9-.7 1.7-1 1.7-.5s.5.2 1-.6c.6-.9 1-1 1-.3s-.8 1.7-1.7 2.2c-1 .6-1.3 1.1-.7 1.1.7 0 1.5.7 1.8 1.6.5 1.3.4 1.4-.7.6-1-.9-1.4-.8-1.4.3 0 .8.5 1.5 1 1.5s.4.7-.3 1.5c-.6.8-.9 1.9-.5 2.5.4.6.1 1.9-.6 2.8-.7.9-.9 1.4-.5 1 .5-.4 1.5-.3 2.3.4 1.1.9 1 1.5-.9 3.5-1.5 1.7-1.8 2.4-.8 2.1.8-.2 1.8-.8 2.2-1.3.5-.6.8-.5.8.3 0 .7-.7 1.5-1.5 1.8-1.4.6-1.3.8.2 2.1 1.7 1.3 1.6 1.4-.7.9-1.4-.3-1.9-.3-1.2 0 .6.3.9 1.1.5 1.7-.4.7 0 .8 1.2.4 1.7-.7 1.7-.6 0 1.9-.9 1.5-1.2 2.4-.7 2 1.2-.7 2.6 2.9 1.7 4.4-.4.6-.1.9.7.8.7-.2 1.2.4 1 1.2-.3 1.2-.1 1.3.9.3s1.9-.8 4.1 1.4c1.5 1.5 2.8 3.3 2.8 4 0 1 .5 1.1 1.8.5 2-1.1 4.5-.5 3.7.8-.3.5.8.4 2.5-.1 1.7-.6 2.7-1.6 2.3-2.2-.3-.6-.1-.7.6-.3.9.6.9 1.1 0 2.2-.6.8-.9 1.7-.5 2.1.3.3.6.1.6-.6s.6-1.1 1.3-.8c.7.3 2.1-.1 3.2-.9 1.5-1.1 2.1-1.1 3.3-.1 1.3 1 1.4.9.3-1-1-1.9-.9-2.2.4-1.7.8.4 1.5 1.1 1.5 1.7 0 .6.3.7.6.4.4-.4.1-1.4-.7-2.4-.8-.9-.9-1.4-.2-1 .7.4 1.6 0 2.2-1 .6-1 1.1-1.2 1.1-.5 0 .6.3 1.1.8 1.1.4-.1 1.5-.1 2.6 0 1.5.1 1.6.4.7 1.5-.9 1.1-.9 1.6 0 2.2.8.4.9.3.5-.4s-.2-1.2.3-1.2c.6 0 1.1.6 1.1 1.2 0 .9.4.8 1-.2s1-1.1 1-.3c0 .7 1.2 1.3 2.6 1.3 1.7 0 2.3-.4 1.9-1.3-.4-.6 0-.4.7.5 1.3 1.5 1.5 1.5 2.4 0 .7-1 1.5-1.3 2.5-.7 2.4 1.6 3.8 1.4 3.2-.3-.4-1-.2-1.3.5-.8.6.3 1.4.1 1.8-.5.4-.7.3-.9-.4-.5s-1-.4-1-2.3c.1-1.7.5-2.8 1-2.5.4.3.8 0 .8-.5 0-1.4-1.3-1.4-2.5-.1-.7.6-1-1.6-1-6 .1-3.8.4-7.2.8-7.6.3-.4.5.2.3 1.3-.3 1.2.1 2 .9 2s1.1-.5.7-1.1c-1.3-2.1-1.3-4.8 0-4 .8.5.8.1-.1-1-1.2-1.4-1.2-1.9-.2-2.5 1-.6.9-1-.4-1.4-.9-.4-1.3-.3-1 .3.3.6.2 1-.3 1-.6 0-.9-1.1-.8-2.4.1-1.8.4-2.2 1.4-1.4.9.8 1.1.7.6-.7-.5-1.3-.4-1.6.4-1.1s1 .1.5-1c-.4-1.1-.8-1.3-1.1-.6-.7 2.2-1.7 1.2-1.7-1.7-.1-1.6.3-2.7.7-2.5.5.3.6 1 .3 1.5s.1.6 1 .2c.9-.3 1.3-.9.8-1.2-1.3-.9-1.4-5.3-.1-4.5.7.4.8.2.4-.5-1.1-1.7-2.9-.2-2.1 1.8.5 1.2.3 1.3-.5.5-.9-.9-.9-1.7 0-3.4.7-1.3.8-2.5.3-2.9-1.1-.8-1.1-2.7 0-3.8.5-.4.7-.2.5.6-.1.7.4 1.6 1.2 1.8 1.2.4 1.2.3.2-.5-.8-.5-1.3-1.2-1.3-1.6.3-1.8 0-2.7-.7-2.2-.4.2-.8-.4-.8-1.4 0-1.2.4-1.6 1.1-1 .6.5 1 0 1-1.5 0-1.9-.3-2.1-1.4-1.2-1.2 1-1.3.8-.9-.9.3-1.3 0-2.1-.8-2.1-.7 0-1.1.4-.8.9.3.4-.1.8-1 .8-.8 0-1.6-.6-1.9-1.3-.3-.9-.8-.9-1.8.2-1.2 1.2-1.2 1.3 0 .6 1-.5 1.2-.4.7.4-.4.6-1.1.9-1.6.6-.4-.3-1-.2-1.3.2-.2.5-.2.3-.1-.4.2-.7-.1-1.5-.6-1.8-.6-.4-1 .1-1 1.1 0 1.3-.3 1.4-1.5.4-.8-.7-1.2-1.7-.8-2.3.3-.6.1-.7-.5-.3-.9.5-.9 1.3-.1 2.9.7 1.2.8 1.9.4 1.5-.5-.4-1.4-.3-2.2.3-1.1 1-1.1 1.5-.1 2.7 1 1.3 1 1.4.1.8-.8-.4-1.3-.2-1.3.6s.6 2 1.3 2.7c1 1.1.8 1.1-1 0-1.6-.9-1.9-1.7-1.3-2.9.6-1.2.5-1.7-.4-1.7-1.6 0-1.2 5 .4 5.5.8.3.7.8-.1 1.8-.9 1.1-.9 1.8-.1 2.6 1.7 1.7 1.5 3.3-.3 1.8-2-1.7-1.9-.5.2 1.6 1.6 1.5 1.6 1.8 0 4.6-.9 1.6-1.2 2.6-.7 2.3.6-.3 1 .1 1 1s-.4 1.4-.8 1.1c-.5-.3-.9.1-.9.9 0 1 .4 1.2 1.2.5.9-.7 1.7-.5 2.6.7 1.3 1.6 1.2 1.7-.2.5-1.4-1-1.8-1-2.2.2-.4.9-.2 1.8.4 2.2.6.3.6 1 .1 1.7-1.1 1.5-1.2 4.8-.1 4.1.5-.2.6-1.2.3-2.2-.5-1.4-.4-1.4.4-.3 1.1 1.6-1.2 6.1-3.1 6.1-.6 0-.7.3-.4.6.3.4.2 1.5-.4 2.5-.8 1.6-1.3 1.7-3.2.7-1.9-1-2-.9-1 .4 1 1.1 1 1.7.1 2.6-.9.9-1.6.8-3.2-.6-1.1-.9-1.6-1.1-1.2-.5.4.7.3 1.3-.3 1.3-.5 0-1.2-.6-1.4-1.3-.4-.9-.7-.9-1.5.1-.6.9-1.2.6-2-1.3-.7-1.4-1.5-2.4-2-2.2-.4.3-.7-.8-.7-2.3 0-1.6.3-2.8.7-2.7.3.1.5-.2.5-.8-.1-.5-.7-.9-1.4-.7-.6.1-1-.5-.9-1.5.2-1-.2-2.1-.8-2.5-.7-.5-.4-.8.8-.8 1.3 0 1.6.5 1.1 1.7-.5 1.5-.4 1.6.7.5s.9-1.7-1.1-3.3c-1.3-1-1.9-1.9-1.4-1.9s.9-.9 1-1.9c.1-1.5-.3-1.8-1.5-1.4-1.3.4-1.2.2.3-1 1.7-1.5 1.8-1.8.5-2.8-1.3-.9-1.3-1 0-.6.8.2 1.5 1.1 1.4 1.9-.1.8.5 1.5 1.2 1.5 1.6 0 0-3.4-2.5-5.5-.9-.8-1-1.1-.4-.7.7.3 2 .2 2.9-.3 1.5-.8 1.5-1 0-1.5-1.1-.5-1.5-.3-1 .5.4.7.3.8-.4.4-.9-.5-.8-1.4.4-3.1 1-1.6 1.2-2.5.4-3-.6-.3-.9-.1-.8.6.2.6-.4 1.4-1.2 1.6-1.3.4-1.3.3 0-.6.8-.6 1.1-1.1.6-1.1-.6 0 0-.9 1.2-2 2.8-2.7 2.8-3.6 0-1.6-3.6 2.6-4.5 1.8-1-.8 2.8-2 3-2.5 1.5-3-1.5-.6-1.5-.8-.3-1.6.8-.6 1-1 .5-1-.6 0-1.6.5-2.2 1.1-.9.9-1 .7-.6-1 .3-1.1 1-2.1 1.7-2.1.6 0 .4-.5-.4-1-1-.6-2.1-.4-3.4.8-1.1.9-1.6 1.1-1.2.4.4-.6.2-1.3-.3-1.3-.6-.1-1.7-.2-2.3-.3-.7-.1-1.9.7-2.6 1.9-1 1.5-1.2 1.6-.8.2.3-.9.1-1.7-.5-1.7s-.7-.5-.4-1c.3-.6.4-1 .1-1-.3 0-.8.4-1.1 1zm5.9 2.5c-.4.8-1.1 1.2-1.6.9-.6-.4-.5-1 .3-1.5 1.9-1.2 1.9-1.1 1.3.6zm4.9 0c-.3.9-.8 1.4-1 1.1-.3-.3-.2-.9.2-1.5.9-1.6 1.5-1.3.8.4zm-15.2 6.2c-1.2 2-1.4 1.4-.5-1.2.4-.9.9-1.4 1.1-1.1.3.2 0 1.3-.6 2.3zm17.6-1.1c-.3.3-1.2.4-1.9.1-.8-.3-.5-.6.6-.6 1.1-.1 1.7.2 1.3.5zm21.7 7.2c.3.5-.1.9-.9.9s-1.2-.4-.9-.9c.3-.4.7-.8.9-.8.2 0 .6.4.9.8zm-.7 9.9c-.4.3-.2 1.2.4 2 .7.8.8 1.3.1 1.3-1.2 0-2.3-2.6-1.5-3.4.4-.3.9-.6 1.1-.6.3 0 .2.3-.1.7zm-38 4.8c0 .8-.4 1.2-.9.9-.5-.3-.6-1-.3-1.5.9-1.3 1.2-1.1 1.2.6zm1 19c0 .8-.4 1.2-.9.9-.5-.3-.6-1-.3-1.5.9-1.3 1.2-1.1 1.2.6zm24.3 11.9c0 .2-.7.9-1.5 1.6-1.3 1.1-1.4 1-.9-.4.5-1.4 2.4-2.3 2.4-1.2zm50.5-60.4c-.4.6-1.1.7-1.7.4-.8-.5-.9-.1-.5 1 .4.9.3 1.5-.2 1.2-.4-.3-1.8.4-2.9 1.5-1.2 1.1-2.2 1.6-2.2 1.1s1-1.6 2.2-2.4c1.5-1 1.7-1.5.7-1.5-.9 0-2.6 1.6-3.9 3.6-1.3 2-1.6 3-.8 2.3 1-.8 1.9-.9 2.2-.4.3.6-.2 1.3-1.2 1.7-1.5.6-1.5.8-.1 1.8 1.6 1.2 2.3 5.1.7 4.1-.5-.3-.6-1-.3-1.5.4-.5.1-.9-.4-.9-1.9 0-1.2 1.8 1.7 4.6 1.5 1.5 1.9 2.1.9 1.4-1.6-1.2-2-1.2-2.8.1-.6 1-.2 1.9 1.4 3.1l2.2 1.7-2.2-.6c-1.4-.3-2.3-.1-2.3.6s.5.9 1 .6c.6-.3 1-.1 1 .5s.5.8 1.2.4.8-.3.4.5c-.4.6-1.3.8-1.9.4-.7-.3-.3.4.8 1.8 1.5 1.8 1.6 2 .3 1-1-.7-1.8-1-1.8-.6 0 .5.8 1.8 1.8 2.9 1.6 2 1.6 2-.2.6s-1.9-1.3-1.3.2c.4 1.1 0 2.1-1 2.7-1.4.7-1.3 1 .5 1.5 1.2.4 2.2 1.2 2.2 1.8 0 .5-.7.7-1.6.4-1.3-.5-1.2 0 .5 2.9 2 3.5.9 4.5-1.7 1.5-.7-.8-.5.1.5 2 1.9 3.7 2.5 7.3 1.2 6.4-.4-.2-.6-1.2-.3-2.2.5-1.4.4-1.4-.4-.3-1.1 1.5-.5 4.1.9 4.1.5 0 .9.5.9 1.1 0 .6-.7.8-1.6.5-1.3-.5-1.2 0 .5 2.9 2 3.5.9 4.5-1.7 1.5-1.1-1.3-1.1-1.2-.2.7.5 1.2 1.8 2.7 2.8 3.2.9.6 1.2 1.1.5 1.1s-1 .7-.6 1.7c.4 1.1.3 1.4-.5.9-.8-.5-1-.1-.5 1.1.6 1.6.5 1.7-1.3.3-1-.8-.5.1 1.1 2 1.7 1.9 2.1 2.8 1.1 2-1.7-1.3-1.9-1.3-1.4 0 .3.8-.2 2.4-1.1 3.5-.9 1.2-1 1.5-.1.7.8-.6 2-1.2 2.8-1.2.9 0 .6.6-.8 1.8-2 1.6-2.1 2-.8 3.3 2.1 2.1 2.2 3.2.1 4-1.7.7-1.7.8.2.9 1.1.2 2.3.2 2.8.1.4 0 .7.5.7 1.3 0 1.8 2.7 2.9 3.6 1.4.4-.6.3-.8-.4-.4-.6.3-1.3.2-1.7-.3-.8-1.4 3.3-.5 5.3 1.1 1.3 1.1 1.5 1 1-.4-.6-1.6 1.3-2 2.8-.6.9.9 3.3-1.5 2.7-2.7-.2-.6.2-.2 1 .8 1.3 1.6 1.5 1.6 2.1.2.4-1 .2-1.4-.5-.9-.8.4-.9-.1-.4-1.6.6-1.7.4-2.1-.6-1.5-.8.5-.5-.2.5-1.4 1.5-1.6 1.6-2 .5-1.6-1 .4-1.6 0-1.6-.9 0-.8.4-1.3.9-1 .4.3.8 0 .8-.5 0-.6-.4-1.1-.9-1.1-.4 0-.7-1.5-.6-3.3.1-1.7-.3-3.8-.9-4.6-.9-1.2-.7-1.2 1.4-.1 2.3 1.2 2.4 1.2 1-.4-1.8-2.2-2.4-5.6-.9-5.6.5 0 .7-.5.3-1.1-.4-.8 0-.7 1.5.1 1.2.6 1.9 1.6 1.5 2.3-.5.9-.3.8.7-.1 1.5-1.4 3.3-1.6 2.5-.3-.3.5.2 1.5 1.2 2.2 1.5 1.3 1.6 1.2.4-.3-.9-1.1-1-1.8-.2-2.3.5-.3 1-.2 1 .3s2.1.8 4.6.8c2.5-.1 4.8.2 5.1.6.2.5.8.8 1.4.8.5 0 .8-.3.8-.8-.3-2 .3-2.1 2.8-.5 1.7 1.2 2.4 1.3 1.9.4-.7-1-.4-1.2 1.3-.6 1.3.4 2.1.2 2.1-.5 0-.6-.4-.9-.8-.6-.4.2-1.4 0-2.2-.5-1.3-.9-1.3-1 0-.8 3 .3 5.1-.1 4.6-1-.3-.4.6-.7 1.9-.5 1.4.1 2.8-.3 3.2-.8.3-.6.1-.8-.4-.5-.6.4-1.3 0-1.6-.8-.4-.9-.1-1.2.7-.9 1.5.6 4-2.1 3.2-3.4-.3-.6.2-1.2 1.2-1.4 1-.3 1.8-1.4 1.9-2.6.1-1.5-.3-2-1.5-1.6-.9.2-.5-.2 1-.9 2.7-1.2 2.7-1.3.7-2.6-1.2-.7-1.8-1.5-1.4-1.9.3-.3 1 0 1.5.8.8 1.3 1.1 1.3 2.2.1 1-1 1-1.2.1-.7-.7.4-1.3.4-1.4-.1-.1-.4-.2-2-.3-3.4-.2-1.4-.6-3-.9-3.6-.3-.5 0-1 .7-1 .8 0 1.2 1.2 1.1 3.3-.2 2.4.2 3.1 1.2 2.7.8-.3 1.1-.9.6-1.2-1.1-.8-1.7-4.4-.5-3.7.5.3.9-.1.9-.9s-.4-1.2-.9-.9c-.4.3-.8 0-.8-.6s-.4-.9-.9-.6c-1.1.7-.8-2.1.4-3.1.4-.4.5-.2.1.4-.5.9-.2 1.1.8.7 1.9-.7 2.2-2.5.4-2.2-.7.2-1.3-.3-1.4-1-.1-.6-.2-1.7-.3-2.3 0-.5-.5-.8-1-.5-1.2.8-.2-3.5 1.3-5.3.8-1.1.8-1.3-.1-.8-.6.4-1.6 0-2.1-.9s-1.2-1.5-1.5-1.5c-2.1.3-2.7 0-2.1-1 .4-.8.9-.7 1.5.2.7 1.1.9 1.1.9-.2 0-.9-.7-1.9-1.5-2.2-.8-.4-1.2-1.5-1-2.8.4-1.7.2-2-.7-1.1-1.7 1.7-3.1 1.5-2.4-.3.7-1.9-2.1-3.3-5.9-2.9-2.2.2-2.6.1-1.5-.6s1.1-1 .2-1c-.7 0-1-.5-.6-1.2.5-.7.3-.8-.7-.2-2.1 1.3-3.9 1.4-3.9.1 0-.7-.5-.5-1 .3-.8 1.2-1 1.2-1 .1 0-1.1-.3-1.1-1.7 0-.9.8-1.4.9-1 .3.4-.7 0-1.4-.8-1.7-.9-.4-1.2-.1-.9.7.3.8 0 1.7-.6 2.1-.6.3-.9.3-.8-.2.2-.4-.1-.8-.7-.8-.5 0-.9.4-.7.8.1.5-.2.6-.8.2-.6-.3-.8-1.1-.5-1.6.4-.5.2-.9-.3-.9s-1.2 1-1.5 2.1c-.4 1.5-1.1 2-2.3 1.5-1.1-.4-1.5-.2-1.1.8.4 1 .1 1.3-.8 1-.8-.3-1.1-1.3-.8-2.2.4-1.4.3-1.5-.5-.2-.8 1-.8 1.8 0 2.7.8 1 .7 1.2-.3.8-1.8-.7-4.3-4.5-2.9-4.5.5 0 1-.5 1-1.1 0-.8-.5-.8-1.5.1-.8.7-1.2 1.6-.9 2.1.3.5 0 .9-.5.9-.6 0-1.1-.7-1.1-1.5 0-1.3-.4-1.4-2-.5-1.1.6-2 .7-2 .3 0-.4-.5-.1-1.1.7-.9 1.3-1 1.2-.5-.3.3-.9.1-1.7-.5-1.7s-.7-.5-.4-1c.3-.6.4-1 .1-1-.3 0-.8.5-1.1 1zm43.5 5.5c0 .2-.9.3-1.9.2-1.1 0-1.8-.5-1.5-.9.4-.6 3.4 0 3.4.7zm2.5 3.5c-.3.5-1.2 1-1.8 1-.7 0-.6-.4.3-1 1.9-1.2 2.3-1.2 1.5 0zm-20.5 5.2c0 .5-.5.8-1.1.8-.5 0-.7.5-.4 1.1.5.6 1.2.4 2.1-.8 1.3-1.7 1.3-1.7 1.5.2.1 1.1.1 2.7 0 3.5-.1 1 .1 1.1.6.4 1-1.3 4.6-2.7 3.8-1.5-.3.5-.2 1.1.2 1.4.5.2.3.3-.3.1-.6-.1-1.1.4-1.1 1.2 0 .8.6 1.3 1.4 1 .7-.3 1.3-.1 1.3.5s.5.7 1.2.3c.7-.4.8-.3.4.4-.4.6-1.4.8-2.3.5-1.5-.6-1.6-.5-.3.9.8.9 1.8 1.4 2.1 1.2.3-.2.6.3.6 1.1s-.4 1.2-.8 1c-.4-.3-.9.2-1.3 1-.3.8-.1 1.7.4 2 .5.3.6 1.3.3 2.2-.5 1.2-.3 1.4.8.8.8-.4 1.1-.5.7 0-.4.4-.2 1.5.5 2.4 1 1.4 1 1.4-.4.3-1.4-1-1.8-1-2.2.2-.4.9-.1 1.8.5 2.2.7.5.8.2.3-.6-.5-.9-.4-1.1.3-.6 1.3.8-.5 4.6-2.2 4.6-.4 0-.2.7.5 1.7 1.3 1.5 1.2 1.5-.7.5-1.6-.9-2.1-.8-2.1.4 0 .7.4 1.4.9 1.4.4 0 .8.4.8 1s-.9.6-2.6 0c-3.6-1.4-4.3-1.2-1.4.5l2.5 1.5-2.7-.4c-1.7-.3-2.8 0-2.8.7 0 .8-.3.8-.8.2-.4-.6-2.6-1.1-5-1-3.6 0-4-.2-2.5-1.3s1.5-1.2-.5-1.2c-1.2 0-2.2-.5-2.2-1.1 0-.5-.4-.8-.9-.4-1.7 1-3.3-3.2-2.1-5.4 1.3-2.6 1.3-3.4-.2-2.5-.7.4-1 .4-.6-.1.4-.4.2-1.5-.5-2.4-1.1-1.4-1-1.4.6-.2 1.6 1.3 2.5.2 1-1.3-1.1-1-1.1-10.6-.1-10 .4.3.8-.6.8-2s.4-2.7.9-3.1c.6-.3.8.4.6 1.5-.2 1.1 0 1.8.6 1.5.5-.4.7-1 .4-1.5-.8-1.2 2.5-4.1 3.8-3.3.6.4.8.1.5-.8-.4-1.1.4-1.4 3.3-1.4 2.2 0 3.9.3 3.9.7zm4.1 2.1c-1 .9-1.1.8-.5-.6.3-1 .9-1.5 1.2-1.2.3.3 0 1.1-.7 1.8zm22.2 9.2c-.3.9-.8 1.4-1 1.1-.3-.3-.2-.9.2-1.5.9-1.6 1.5-1.3.8.4zm-15.8 4.5c.3.6-.1.7-.9.4-1.8-.7-2.1-1.4-.7-1.4.6 0 1.3.4 1.6 1zm-41.8 4.6c-.3.3-1.2.4-1.9.1-.8-.3-.5-.6.6-.6 1.1-.1 1.7.2 1.3.5zm52.8 17.3c.3.5.2 1.2-.3 1.5-.5.3-.9-.1-.9-.9 0-1.7.3-1.9 1.2-.6zm-31.5 7.3c0 .6-.6.5-1.5-.2-.8-.7-1.5-1.4-1.5-1.6 0-.2.7-.1 1.5.2.8.4 1.5 1.1 1.5 1.6zm-21.1 19.1c0 .9-.2.8-.6-.1-.2-.6-1-.9-1.5-.6-.7.4-.8.2-.4-.5.9-1.3 2.6-.5 2.5 1.2z"/><path d="M590.3 357.1c-.2 2.3.3 2.5 1 .4.4-.8.3-1.6-.1-1.9-.4-.3-.9.4-.9 1.5zm.8 13.3c-1.3 1.6-.4 4.9 1.1 4 .6-.4.5-1-.3-1.4-1-.7-1-1.1 0-2.4.8-.9 1.1-1.6.8-1.6-.2 0-1 .6-1.6 1.4zm-465.5-38.5c-.3.5.2 1.5 1.2 2.2 1.5 1.2 1.6 1.2.5-.2-.7-.9-1-1.9-.6-2.2.3-.4.4-.7 0-.7-.3 0-.8.4-1.1.9zm65.4.2c0 .8.7 1 2.6.8.3 0 1.1.7 1.8 1.7.9 1.1 1.5 1.3 2 .6.3-.6-.4-1.7-1.6-2.4-3-1.6-4.8-1.9-4.8-.7zm280 0c0 .5.5.7 1 .4.6-.3 1-.8 1-1.1 0-.2-.4-.4-1-.4-.5 0-1 .5-1 1.1zm112 0c0 .5.5.7 1 .4.6-.3 1-.8 1-1.1 0-.2-.4-.4-1-.4-.5 0-1 .5-1 1.1zm-41.6.7c.4.6-.3 1.2-1.6 1.4-1.9.3-2 .4-.6 1 2.1.9 4.5-1.6 2.7-2.8-.7-.4-.9-.3-.5.4zm-445.8 14c-.3.5.1.9.9.9s1.2-.4.9-.9c-.3-.4-.7-.8-.9-.8-.2 0-.6.4-.9.8zm80 .1c-.3.5.1 1.1.9 1.4.9.4 1.2.1.8-.9-.6-1.6-1-1.7-1.7-.5zm-82.7.6c0 .5-.2 1.8-.4 2.7-.2 1.1.2 1.5 1.1 1.1 1.6-.6 1.7-1.3.4-3.3-.5-.8-1-1.1-1.1-.5zm16.7 1.2c-.4.9-.3 2 .1 2.4.4.4.9-.3.9-1.7.2-2.8-.1-3.1-1-.7zm524.3 4c-1.3 1.6-1.2 1.7.4.4.9-.7 1.7-1.5 1.7-1.7 0-.8-.8-.3-2.1 1.3zm-113.2 6.9c-.8.8.3 3.4 1.5 3.4.7 0 .6-.5-.1-1.3-.6-.8-.8-1.7-.4-2 .3-.4.4-.7.1-.7-.2 0-.7.3-1.1.6zM72 367.9c0 .6.4 1.2.8 1.5.5.3.9-.1.9-.9s-.4-1.5-.9-1.5c-.4 0-.8.4-.8.9zm.5 4.1c.3.5.8 1 1.1 1 .2 0 .4-.5.4-1 0-.6-.5-1-1.1-1-.5 0-.7.4-.4 1zm132.1-.2c-.3.4.4.9 1.5.9 2.3.2 2.5-.3.4-1-.8-.4-1.6-.3-1.9.1zm-74.6 2.6c.7.7 1.3.7 2 0 .6-.6.3-1-1-1s-1.6.4-1 1zm76.2.5c-1.1.7-1.1.9 0 1.4.9.3 1.5-.1 1.5-.9s-.1-1.4-.1-1.4c-.1 0-.7.4-1.4.9zm317.4.9c-.2.4-.1 1.4.4 2.2.7 1.1.9.9.7-.8-.1-2.4-.3-2.6-1.1-1.4zm11 .5c.3 1 .9 1.5 1.2 1.2.3-.3 0-1.1-.7-1.8-1-.9-1.1-.8-.5.6zm24 .4c-.6 1.4-.5 1.5.5.6.7-.7 1-1.5.7-1.8-.3-.3-.9.2-1.2 1.2zM165.7 380c-.3 1.1-.1 2 .4 2s.9-.9.9-2-.2-2-.4-2-.6.9-.9 2zm9.3-1.6c0 .2.7.9 1.5 1.6 1.3 1.1 1.4 1 .9-.4-.5-1.4-2.4-2.3-2.4-1.2zm355.7 1.1c.3.8.9 1.2 1.4.9 1.2-.7 1.1-1.1-.5-1.7-1-.4-1.3-.1-.9.8zm28.3.5c-.6 1.1-.8 2-.6 2 .3 0 1-.9 1.6-2 .6-1.1.8-2 .6-2-.3 0-1 .9-1.6 2zm-455.5 0c.3.5.8 1 1.1 1 .2 0 .4-.5.4-1 0-.6-.5-1-1.1-1-.5 0-.7.4-.4 1zm403.5 7.4c0 .4 1.1 1.8 2.5 3.2 1.4 1.4 2.5 2.1 2.5 1.6s-1.1-1.9-2.5-3.2c-1.4-1.3-2.5-2-2.5-1.6zm29.6 2.8c.3.4.9.8 1.5.8.5 0 .9-.4.9-.8 0-.5-.7-.9-1.5-.9s-1.2.4-.9.9zM211 391.9c0 .6.4 1.2.8 1.5.5.3.9-.1.9-.9s-.4-1.5-.9-1.5c-.4 0-.8.4-.8.9zm359 2.2c0 .5.5.7 1 .4.6-.3 1-.8 1-1.1 0-.2-.4-.4-1-.4-.5 0-1 .5-1 1.1zm31.6-.3c-.3.4.4.9 1.5.9 2.3.2 2.5-.3.4-1-.8-.4-1.6-.3-1.9.1zm5.4.1c0 .6.4 1.3 1 1.6.6.3.7-.1.4-.9-.7-1.8-1.4-2.1-1.4-.7zm-16.7 7.1c-.1 1.1.2 2.2.8 2.5.5.4.6-.2.2-1.1-.5-1.3-.3-1.5.8-.9 1.2.8 1.2.6 0-.8-1.7-2.1-1.6-2.1-1.8.3zm-368.8 16c-.4.6-.1.9.7.8.7-.2 1.2.3 1 1-.1.8.2 1.1.8.7.8-.5.7-1.1-.1-2.1-1.4-1.7-1.6-1.7-2.4-.4zm350.2.1c.7.7 1.5 1 1.8.7.3-.3-.2-.9-1.2-1.2-1.4-.6-1.5-.5-.6.5zm15.9 1.6c-.6 1.4-.5 1.5.5.6.7-.7 1-1.5.7-1.8-.3-.3-.9.2-1.2 1.2zM436 433.5c-.7.9-.8 1.5-.2 1.5.5 0 1.2-.7 1.6-1.5.3-.8.4-1.5.2-1.5s-.9.7-1.6 1.5zm-6.6 9.1c-1.8 1.4-1.8 1.5.4.4 1.2-.6 2.2-1.3 2.2-1.5 0-.8-.5-.6-2.6 1.1zm-14.9 12.5c-.4.6-.5 1.2-.2 1.5.2.3.7-.2 1-1.1.7-1.7.1-2-.8-.4zm-155.9 1.7c-.3.5.1.9.9.9s1.2-.4.9-.9c-.3-.4-.7-.8-.9-.8-.2 0-.6.4-.9.8zm8.4 5.6c0 .2.7.7 1.6 1 .8.3 1.2.2.9-.4-.6-1-2.5-1.4-2.5-.6zm92.8 17.3c-.7.9-.7 1.3.1 1.3.6 0 1.1-.6 1.1-1.3 0-.9.2-.9.8-.1.5.9 1 .8 1.9-.1 1-1.1.9-1.3-.8-1.2-1.1.1-2.5.7-3.1 1.4z"/></svg>