<svg width="295" height="434" viewBox="0 0 295 434" fill="none" xmlns="http://www.w3.org/2000/svg"><path d="M295 147.5c0 81.128-65.498 146.958-146.499 147.497a166.753 166.753 0 01-2.001 0C65.498 294.459 0 228.628 0 147.5 0 66.038 66.038 0 147.5 0S295 66.038 295 147.5zm-293.525 0c0 80.647 65.378 146.025 146.025 146.025S293.525 228.147 293.525 147.5 228.147 1.475 147.5 1.475 1.475 66.853 1.475 147.5z" fill="#042940"/><path d="M147.5 295c-.334 0-.667-.001-1-.003V431h2.001V294.997c-.333.002-.667.003-1.001.003z" fill="#042940"/><path d="M150.5 431a3 3 0 11-6 0 3 3 0 016 0z" fill="#042940"/></svg>