<svg width="185" height="188" viewBox="0 0 185 188" fill="none" xmlns="http://www.w3.org/2000/svg"><path d="M93.046 93.998l-.003.63h89.075v-1.261H93.043c.002.21.002.42.002.631z" fill="#042940"/><path d="M182.118 92.106c1.039 0 1.882.847 1.882 1.892a1.887 1.887 0 01-1.882 1.892 1.887 1.887 0 01-1.882-1.892c0-1.045.843-1.892 1.882-1.892zM92.12 93.998C92.12 144.847 51.588 186 1 186v1c50.89 0 91.706-41.299 92.043-92.371v-1.262C92.706 42.295 51.89 1 1 1v1c50.588 0 91.12 41.15 91.12 91.998z" fill="#042940"/><path d="M93.043 94.629a94.584 94.584 0 000-1.262m0 1.262C92.706 145.7 51.89 187 1 187v-1c50.588 0 91.12-41.153 91.12-92.002S51.588 2 1 2V1c50.89 0 91.706 41.295 92.043 92.367m0 1.262v-1.262m0 1.262h89.075v-1.262H93.043m89.075-1.26c1.039 0 1.882.846 1.882 1.891a1.887 1.887 0 01-1.882 1.892 1.887 1.887 0 01-1.882-1.892c0-1.045.843-1.892 1.882-1.892z" stroke="#042940"/></svg>