<svg width="184" height="126" viewBox="0 0 184 126" fill="none" xmlns="http://www.w3.org/2000/svg"><circle cx="63" cy="62.999" r="51" fill="#DBF227"/><path d="M124.71 63l-.002.42h57.034v-.84h-57.034l.002.42z" fill="#042940"/><path d="M181.742 61.739A1.26 1.26 0 01183 63a1.26 1.26 0 01-1.258 1.261A1.26 1.26 0 01180.484 63a1.26 1.26 0 011.258-1.261zM1 63c0 34.242 27.693 62 61.855 62v-.62C29.035 124.38 1.619 96.9 1.619 63c0-33.9 27.416-61.38 61.236-61.38 33.82 0 61.236 27.48 61.236 61.38v.42h.617v-.84C124.482 28.53 96.876 1 62.855 1 28.693 1 1 28.758 1 63z" fill="#042940"/><path d="M124.708 63.42a58.83 58.83 0 000-.84m0 .84v-.84m0 .84h57.034v-.84h-57.034m0 .84h-.617V63c0-33.9-27.416-61.38-61.236-61.38C29.035 1.62 1.619 29.1 1.619 63c0 33.9 27.416 61.38 61.236 61.38v.62C28.693 125 1 97.242 1 63 1 28.758 28.693 1 62.855 1c34.021 0 61.627 27.531 61.853 61.58m57.034-.841A1.26 1.26 0 01183 63a1.26 1.26 0 01-1.258 1.261A1.26 1.26 0 01180.484 63a1.26 1.26 0 011.258-1.261z" stroke="#042940"/></svg>