<svg width="102" height="70" viewBox="0 0 102 70" fill="none" xmlns="http://www.w3.org/2000/svg"><path d="M34.986 1C53.68 1 68.848 16.098 68.972 34.77a35.458 35.458 0 010 .46C68.848 53.903 53.68 69 34.986 69 16.216 69 1 53.778 1 35 1 16.223 16.216 1 34.986 1zm0 67.66c18.583 0 33.647-15.07 33.647-33.66 0-18.59-15.064-33.66-33.647-33.66C16.404 1.34 1.34 16.41 1.34 35c0 18.59 15.064 33.66 33.646 33.66z" fill="#DBF227"/><path d="M68.972 35v.23h31.337v-.46H68.972V35z" fill="#DBF227"/><path d="M100.309 34.309a.691.691 0 110 1.382.691.691 0 010-1.382z" fill="#DBF227"/><path d="M68.972 35.23a35.372 35.372 0 000-.46m0 .46C68.848 53.903 53.68 69 34.986 69 16.216 69 1 53.778 1 35 1 16.223 16.216 1 34.986 1 53.68 1 68.848 16.098 68.972 34.77m0 .46v-.46m0 .46h31.337v-.46H68.972M34.986 68.66c18.583 0 33.647-15.07 33.647-33.66 0-18.59-15.064-33.66-33.647-33.66C16.404 1.34 1.34 16.41 1.34 35c0 18.59 15.064 33.66 33.646 33.66zm65.324-34.35a.691.691 0 110 1.382.691.691 0 010-1.382z" stroke="#DBF227" stroke-width="2"/></svg>